<?xml version="1.0" encoding="UTF-8"?><svg xmlns="http://www.w3.org/2000/svg" xmlns:xlink="http://www.w3.org/1999/xlink" version="1.1" id="Layer_1" x="0px" y="0px" viewBox="0 0 30 30" xml:space="preserve"><path fill="#303C42" d="M15 0C6.729 0 0 6.729 0 15s6.729 15 15 15 15-6.729 15-15S23.271 0 15 0zM7.5 6a.5.5 0 0 1 .5.5c0 1.373 2.99 3.5 4.5 3.5a.5.5 0 1 1 0 1C10.588 11 7 8.616 7 6.5a.5.5 0 0 1 .5-.5zm3.5 6c0 .551-.449 1-1 1s-1-.449-1-1 .449-1 1-1 1 .449 1 1zm11.824 10.88a.499.499 0 0 1-.705-.056C20.528 20.95 18.133 20 15 20c-3.132 0-5.527.95-7.12 2.824a.498.498 0 0 1-.704.057.5.5 0 0 1-.057-.705C8.91 20.07 11.561 19 15 19c3.44 0 6.091 1.07 7.88 3.176a.5.5 0 0 1-.056.705zM19 12c0-.551.449-1 1-1s1 .449 1 1-.449 1-1 1-1-.449-1-1zm-1.5-1a.5.5 0 1 1 0-1c1.704 0 5.5-2.233 5.5-3.5a.5.5 0 1 1 1 0c0 2.098-4.614 4.5-6.5 4.5z"/><metadata><rdf:RDF xmlns:rdf="http://www.w3.org/1999/02/22-rdf-syntax-ns#" xmlns:rdfs="http://www.w3.org/2000/01/rdf-schema#" xmlns:dc="http://purl.org/dc/elements/1.1/"><rdf:Description about="https://iconscout.com/legal#licenses" dc:title="angry,emot,emots,emoji,emote" dc:description="angry,emot,emots,emoji,emote" dc:publisher="Iconscout" dc:date="2017-11-29" dc:format="image/svg+xml" dc:language="en"><dc:creator><rdf:Bag><rdf:li>Those Icons</rdf:li></rdf:Bag></dc:creator></rdf:Description></rdf:RDF></metadata></svg>