<?xml version="1.0" encoding="UTF-8"?><svg xmlns="http://www.w3.org/2000/svg" xmlns:xlink="http://www.w3.org/1999/xlink" version="1.1" id="Layer_1" x="0px" y="0px" viewBox="0 0 30 30" xml:space="preserve"><path fill="#303C42" d="M15 0C6.729 0 0 6.729 0 15s6.729 15 15 15 15-6.729 15-15S23.271 0 15 0zm6.911 12.216C22.238 12.69 23 13.86 23 14.5c0 .827-.673 1.5-1.5 1.5s-1.5-.673-1.5-1.5c0-.64.762-1.81 1.089-2.284.185-.27.637-.27.822 0zM20 10a1.001 1.001 0 1 1-1 1c0-.551.448-1 1-1zm-10 0a1.001 1.001 0 1 1-1 1c0-.551.448-1 1-1zm13.204 13.956a.497.497 0 0 1-.66-.251C21.282 20.89 18.257 19 15.014 19c-3.257 0-6.294 1.89-7.558 4.705a.5.5 0 0 1-.912-.41C7.966 20.128 11.37 18 15.014 18c3.63 0 7.022 2.128 8.442 5.295a.5.5 0 0 1-.252.661z"/><metadata><rdf:RDF xmlns:rdf="http://www.w3.org/1999/02/22-rdf-syntax-ns#" xmlns:rdfs="http://www.w3.org/2000/01/rdf-schema#" xmlns:dc="http://purl.org/dc/elements/1.1/"><rdf:Description about="https://iconscout.com/legal#licenses" dc:title="cry,emot,emots,emoji,emote" dc:description="cry,emot,emots,emoji,emote" dc:publisher="Iconscout" dc:date="2017-11-29" dc:format="image/svg+xml" dc:language="en"><dc:creator><rdf:Bag><rdf:li>Those Icons</rdf:li></rdf:Bag></dc:creator></rdf:Description></rdf:RDF></metadata></svg>