<?xml version="1.0" encoding="UTF-8"?><svg xmlns="http://www.w3.org/2000/svg" xmlns:xlink="http://www.w3.org/1999/xlink" version="1.1" id="Layer_1" x="0px" y="0px" viewBox="0 0 30 30" xml:space="preserve"><path fill="#303C42" d="M30 19.75c0-.71-.338-1.337-.853-1.75.515-.413.853-1.04.853-1.75a2.245 2.245 0 0 0-2-2.225V14c0-7.72-6.28-14-14-14S0 6.28 0 14s6.28 14 14 14c2.477 0 4.877-.65 7-1.878v1.628c0 1.24 1.01 2.25 2.25 2.25s2.25-1.01 2.25-2.25V25.5h2.25c1.24 0 2.25-1.01 2.25-2.25 0-.71-.338-1.337-.853-1.75.515-.413.853-1.04.853-1.75zm-1-3.5c0 .69-.56 1.25-1.25 1.25h-1.5a1.251 1.251 0 0 1 0-2.5h1.5c.69 0 1.25.56 1.25 1.25zM9 11a1.001 1.001 0 0 1 0-2 1.001 1.001 0 0 1 0 2zm8.5 9h-7a.5.5 0 1 1 0-1h7a.5.5 0 1 1 0 1zm1.5-9a1.001 1.001 0 0 1 0-2 1.001 1.001 0 0 1 0 2zm4.25 18c-.69 0-1.25-.56-1.25-1.25v-9.786a2.959 2.959 0 0 1 2.347-2.902A2.23 2.23 0 0 0 24 16.25c0 .71.338 1.337.853 1.75A2.238 2.238 0 0 0 24 19.75c0 .527.19 1.006.495 1.39A2.247 2.247 0 0 0 23 23.25c0 .976.629 1.801 1.5 2.112v2.388c0 .69-.56 1.25-1.25 1.25zM29 23.25c0 .69-.56 1.25-1.25 1.25h-2.5a1.251 1.251 0 0 1 0-2.5h2.5c.69 0 1.25.56 1.25 1.25zM26.25 21a1.251 1.251 0 0 1 0-2.5h1.5a1.251 1.251 0 0 1 0 2.5h-1.5z"/><metadata><rdf:RDF xmlns:rdf="http://www.w3.org/1999/02/22-rdf-syntax-ns#" xmlns:rdfs="http://www.w3.org/2000/01/rdf-schema#" xmlns:dc="http://purl.org/dc/elements/1.1/"><rdf:Description about="https://iconscout.com/legal#licenses" dc:title="dislike,emot,emots,emoji,emote" dc:description="dislike,emot,emots,emoji,emote" dc:publisher="Iconscout" dc:date="2017-11-29" dc:format="image/svg+xml" dc:language="en"><dc:creator><rdf:Bag><rdf:li>Those Icons</rdf:li></rdf:Bag></dc:creator></rdf:Description></rdf:RDF></metadata></svg>