<?xml version="1.0" encoding="UTF-8"?><svg xmlns="http://www.w3.org/2000/svg" xmlns:xlink="http://www.w3.org/1999/xlink" version="1.1" id="Layer_1" x="0px" y="0px" viewBox="0 0 30 30" xml:space="preserve"><path fill="#303C42" d="M15 0C6.729 0 0 6.729 0 15s6.729 15 15 15 15-6.729 15-15S23.271 0 15 0zM9.084 12H8.5a.5.5 0 1 1 0-1h1.113a2.36 2.36 0 0 0-.53 1zm1.32 1.563a1.394 1.394 0 0 1 0-1.959c.513-.515 1.41-.52 1.929-.01l2.218 2.23a.5.5 0 0 0 .709-.705l-2.207-2.22-.015-.014-.868-.873a1.391 1.391 0 0 1 0-1.958c.517-.52 1.422-.52 1.94 0l.88.884.002.003 2.208 2.22a.5.5 0 0 0 .709-.705L15.7 8.236a1.391 1.391 0 0 1 0-1.958c.518-.518 1.43-.51 1.933-.007l3.812 3.995a.5.5 0 1 0 .862-.345V7.836c0-.742.604-1.347 1.346-1.347S25 7.094 25 7.836v7.627a3.26 3.26 0 0 1-.955 2.313l-1.922 1.934a3.947 3.947 0 0 1-4.578.743 3.942 3.942 0 0 1-1.032-.747l-6.11-6.143zm10.604 8.001c.705.446 1.336.98 1.873 1.613a.499.499 0 1 1-.762.646 7.414 7.414 0 0 0-2.64-1.961 4.926 4.926 0 0 0 1.529-.298zM7.119 23.176C8.91 21.068 11.561 20 15 20c.14 0 .274.013.412.017l.392.394c.268.27.573.494.894.694A13.56 13.56 0 0 0 15 21c-3.132 0-5.527.95-7.12 2.824a.498.498 0 0 1-.704.057.5.5 0 0 1-.057-.705z"/><metadata><rdf:RDF xmlns:rdf="http://www.w3.org/1999/02/22-rdf-syntax-ns#" xmlns:rdfs="http://www.w3.org/2000/01/rdf-schema#" xmlns:dc="http://purl.org/dc/elements/1.1/"><rdf:Description about="https://iconscout.com/legal#licenses" dc:title="facepalm,emot,emots,emoji,emote" dc:description="facepalm,emot,emots,emoji,emote" dc:publisher="Iconscout" dc:date="2017-11-29" dc:format="image/svg+xml" dc:language="en"><dc:creator><rdf:Bag><rdf:li>Those Icons</rdf:li></rdf:Bag></dc:creator></rdf:Description></rdf:RDF></metadata></svg>