<?xml version="1.0" encoding="UTF-8"?><svg xmlns="http://www.w3.org/2000/svg" xmlns:xlink="http://www.w3.org/1999/xlink" version="1.1" id="Layer_1" x="0px" y="0px" viewBox="0 0 30 30" xml:space="preserve"><path fill="#303C42" d="M15 0C6.729 0 0 6.729 0 15s6.729 15 15 15 15-6.729 15-15S23.271 0 15 0zm-2.146 4.646a.5.5 0 0 1 0 .708L11.707 6.5l1.147 1.146a.5.5 0 1 1-.708.708l-1.5-1.5a.5.5 0 0 1 0-.708l1.5-1.5a.5.5 0 0 1 .708 0zm-5.208-1.5a.5.5 0 0 1 .708 0L9.5 4.293l1.146-1.147a.5.5 0 1 1 .708.708l-1.5 1.5a.498.498 0 0 1-.708 0l-1.5-1.5a.5.5 0 0 1 0-.708zM6.5 8.5a.498.498 0 0 1-.354-.854L7.293 6.5 6.146 5.354a.5.5 0 1 1 .708-.708l1.5 1.5a.5.5 0 0 1 0 .708l-1.5 1.5A.498.498 0 0 1 6.5 8.5zm1.146 1.354a.5.5 0 0 1 0-.708l1.5-1.5a.5.5 0 0 1 .708 0l1.5 1.5a.5.5 0 1 1-.708.708L9.5 8.707 8.354 9.854a.5.5 0 0 1-.708 0zM11 13c0 .551-.449 1-1 1s-1-.449-1-1 .449-1 1-1 1 .449 1 1zm9.5 9c-.23 0-.33.098-.55.338-.257.28-.608.662-1.287.662s-1.03-.382-1.287-.662c-.22-.24-.32-.338-.55-.338-.23 0-.328.098-.548.338-.257.28-.608.662-1.286.662s-1.028-.383-1.284-.663c-.22-.24-.317-.337-.545-.337-.23 0-.328.098-.548.338-.256.28-.607.662-1.285.662-.678 0-1.028-.383-1.284-.663-.22-.24-.318-.337-.546-.337a.5.5 0 1 1 0-1c.678 0 1.028.383 1.284.663.22.24.318.337.546.337.23 0 .328-.098.548-.338.256-.28.607-.662 1.285-.662.677 0 1.027.383 1.283.663.22.24.318.337.546.337.23 0 .328-.098.549-.338.256-.28.607-.662 1.285-.662.679 0 1.03.382 1.287.662.221.24.32.338.55.338s.33-.098.55-.338c.257-.28.608-.662 1.287-.662a.5.5 0 1 1 0 1zm-.5-8c-.551 0-1-.449-1-1s.449-1 1-1 1 .449 1 1-.449 1-1 1z"/><metadata><rdf:RDF xmlns:rdf="http://www.w3.org/1999/02/22-rdf-syntax-ns#" xmlns:rdfs="http://www.w3.org/2000/01/rdf-schema#" xmlns:dc="http://purl.org/dc/elements/1.1/"><rdf:Description about="https://iconscout.com/legal#licenses" dc:title="headache,emot,emots,emoji,emote" dc:description="headache,emot,emots,emoji,emote" dc:publisher="Iconscout" dc:date="2017-11-29" dc:format="image/svg+xml" dc:language="en"><dc:creator><rdf:Bag><rdf:li>Those Icons</rdf:li></rdf:Bag></dc:creator></rdf:Description></rdf:RDF></metadata></svg>