<?xml version="1.0" encoding="UTF-8"?><svg xmlns="http://www.w3.org/2000/svg" xmlns:xlink="http://www.w3.org/1999/xlink" version="1.1" id="Layer_1" x="0px" y="0px" viewBox="0 0 30 30" xml:space="preserve"><path fill="#303C42" d="M15 0C6.729 0 0 6.729 0 15s6.729 15 15 15 15-6.729 15-15S23.271 0 15 0zm5 10a1 1 0 1 1-.002 1.998A1 1 0 0 1 20 10zm-10 0a1 1 0 1 1-.002 1.998A1 1 0 0 1 10 10zm14.5 6c-.134 0-.275-.024-.443-.077a.505.505 0 0 0-.487.11l-3.537 3.24a.497.497 0 0 0 .118.818c1.087.531 2.005 1.232 2.73 2.085a.501.501 0 0 1-.057.705.515.515 0 0 1-.705-.057C20.528 20.95 18.133 20 15 20c-3.132 0-5.527.95-7.12 2.824a.497.497 0 0 1-.34.174.472.472 0 0 1-.364-.117.498.498 0 0 1-.057-.704C8.884 20.099 11.609 19 15 19c1.073 0 2.124.123 3.122.366a.497.497 0 0 0 .456-.117l4.31-3.95a.499.499 0 0 0 .15-.475A1.513 1.513 0 0 1 23 14.5c0-.827.673-1.5 1.5-1.5s1.5.673 1.5 1.5-.673 1.5-1.5 1.5z"/><metadata><rdf:RDF xmlns:rdf="http://www.w3.org/1999/02/22-rdf-syntax-ns#" xmlns:rdfs="http://www.w3.org/2000/01/rdf-schema#" xmlns:dc="http://purl.org/dc/elements/1.1/"><rdf:Description about="https://iconscout.com/legal#licenses" dc:title="ill,emot,emots,emoji,emote" dc:description="ill,emot,emots,emoji,emote" dc:publisher="Iconscout" dc:date="2017-11-29" dc:format="image/svg+xml" dc:language="en"><dc:creator><rdf:Bag><rdf:li>Those Icons</rdf:li></rdf:Bag></dc:creator></rdf:Description></rdf:RDF></metadata></svg>