<?xml version="1.0" encoding="UTF-8"?><svg xmlns="http://www.w3.org/2000/svg" xmlns:xlink="http://www.w3.org/1999/xlink" version="1.1" id="Layer_1" x="0px" y="0px" viewBox="0 0 30 30" xml:space="preserve"><path fill="#303C42" d="M15 0C6.729 0 0 6.729 0 15s6.729 15 15 15 15-6.729 15-15S23.271 0 15 0zM9 13a1.001 1.001 0 1 1 1 1c-.551 0-1-.448-1-1zm2.002 7.452a.503.503 0 0 1 .545-.45c.22.021 5.42.541 9.23 3.082a.5.5 0 1 1-.554.832c-.908-.605-1.913-1.09-2.908-1.478l-1.947-.649a24.926 24.926 0 0 0-3.915-.791.5.5 0 0 1-.45-.546zM19 13a1.001 1.001 0 1 1 1 1c-.551 0-1-.448-1-1zM1.202 17.275A13.977 13.977 0 0 1 1 15c0-.427.026-.847.064-1.265L6.978 10h5.513l-11.29 7.275zM20.25 5h-5.355l4.941-3.121c1.044.386 2.035.88 2.945 1.49L20.25 5zm3.389-.995c.397.313.78.642 1.14.995h-2.684l1.544-.995zM13.022 5H5.22a14.04 14.04 0 0 1 4.368-2.91l4.675 2.125L13.022 5zm12.686 1a14.028 14.028 0 0 1 1.922 3H2.37a14.028 14.028 0 0 1 1.922-3h21.416zM5.105 10l-3.86 2.438c.157-.843.393-1.656.694-2.438h3.166zM18.59 1.484l-3.313 2.092-4.337-1.97A13.946 13.946 0 0 1 15 1c1.242 0 2.441.179 3.59.484z"/><metadata><rdf:RDF xmlns:rdf="http://www.w3.org/1999/02/22-rdf-syntax-ns#" xmlns:rdfs="http://www.w3.org/2000/01/rdf-schema#" xmlns:dc="http://purl.org/dc/elements/1.1/"><rdf:Description about="https://iconscout.com/legal#licenses" dc:title="injured,emot,emots,emoji,emote" dc:description="injured,emot,emots,emoji,emote" dc:publisher="Iconscout" dc:date="2017-11-29" dc:format="image/svg+xml" dc:language="en"><dc:creator><rdf:Bag><rdf:li>Those Icons</rdf:li></rdf:Bag></dc:creator></rdf:Description></rdf:RDF></metadata></svg>