<?xml version="1.0" encoding="UTF-8"?><svg xmlns="http://www.w3.org/2000/svg" xmlns:xlink="http://www.w3.org/1999/xlink" version="1.1" id="Layer_1" x="0px" y="0px" viewBox="0 0 30 30" xml:space="preserve"><path fill="#303C42" d="M28.174 22.162A14.98 14.98 0 0 0 30 15c0-8.271-6.729-15-15-15S0 6.729 0 15s6.729 15 15 15c2.83 0 5.568-.795 7.95-2.289l2.201 2.147a.497.497 0 0 0 .698 0L29.2 26.59A2.658 2.658 0 0 0 30 24.688c0-1.17-.767-2.158-1.826-2.526zM10 10c-1.654 0-3 1.346-3 3a.5.5 0 1 1-1 0c0-2.206 1.794-4 4-4s4 1.794 4 4a.5.5 0 1 1-1 0c0-1.654-1.346-3-3-3zm10 12.5a2.503 2.503 0 0 1-4.153 1.875C15.774 24.297 14.733 23 13.5 23a.5.5 0 1 1 0-1c1.724 0 3.017 1.623 3.071 1.692.211.175.564.308.929.308.827 0 1.5-.673 1.5-1.5s-.673-1.5-1.5-1.5a.5.5 0 1 1 0-1c.827 0 1.5-.673 1.5-1.5a1.502 1.502 0 0 0-2.491-1.125C16.517 17.377 15.224 19 13.5 19a.5.5 0 1 1 0-1c1.233 0 2.274-1.297 2.285-1.31.519-.468 1.106-.69 1.715-.69 1.379 0 2.5 1.122 2.5 2.5 0 .817-.394 1.543-1.002 2a2.496 2.496 0 0 1 1.002 2zM17 13a.5.5 0 1 1-1 0c0-2.206 1.794-4 4-4s4 1.794 4 4a.5.5 0 1 1-1 0c0-1.654-1.346-3-3-3s-3 1.346-3 3zm11.501 12.876L25.5 28.802l-2.998-2.924a1.66 1.66 0 0 1-.502-1.19c0-.931.772-1.688 1.723-1.688.483 0 .999.3 1.379.802.187.25.609.25.796 0 .38-.502.896-.802 1.38-.802.95 0 1.722.757 1.722 1.688 0 .448-.178.872-.499 1.188z"/><metadata><rdf:RDF xmlns:rdf="http://www.w3.org/1999/02/22-rdf-syntax-ns#" xmlns:rdfs="http://www.w3.org/2000/01/rdf-schema#" xmlns:dc="http://purl.org/dc/elements/1.1/"><rdf:Description about="https://iconscout.com/legal#licenses" dc:title="kiss,emot,emots,emoji,emote" dc:description="kiss,emot,emots,emoji,emote" dc:publisher="Iconscout" dc:date="2017-11-29" dc:format="image/svg+xml" dc:language="en"><dc:creator><rdf:Bag><rdf:li>Those Icons</rdf:li></rdf:Bag></dc:creator></rdf:Description></rdf:RDF></metadata></svg>