<?xml version="1.0" encoding="UTF-8"?><svg xmlns="http://www.w3.org/2000/svg" xmlns:xlink="http://www.w3.org/1999/xlink" version="1.1" id="Layer_1" x="0px" y="0px" viewBox="0 0 30 30" xml:space="preserve"><path fill="#303C42" d="M28 14.025V14c0-7.72-6.28-14-14-14S0 6.28 0 14s6.28 14 14 14c2.713 0 5.324-.78 7.587-2.243.108.119.225.23.356.323a2.237 2.237 0 0 0-.403 2.861A2.237 2.237 0 0 0 23.448 30h.002l2.625-.002c2.164-.002 3.925-1.78 3.925-3.962V16.25a2.245 2.245 0 0 0-2-2.225zM19 9a1 1 0 1 1-.002 1.998A1 1 0 0 1 19 9zM9 9a1 1 0 1 1-.002 1.998A1 1 0 0 1 9 9zm10.419 13.4c-.218-.598-1.097-2.4-3.752-2.4-.114 0-.987.014-1.667.428-.68-.414-1.553-.428-1.667-.428-2.656 0-3.534 1.8-3.753 2.401-1.781-1.151-3.107-2.838-3.567-4.786A.501.501 0 0 1 5.5 17h17a.5.5 0 0 1 .486.615c-.079.333-.19.655-.318.97A2.247 2.247 0 0 0 21 20.75c0 .111.022.216.037.323A9.138 9.138 0 0 1 19.42 22.4zM29 26.036c0 1.632-1.313 2.96-2.926 2.962L23.449 29c-.435 0-.83-.22-1.06-.588a1.242 1.242 0 0 1-.063-1.212c.208-.426.649-.7 1.174-.7a.5.5 0 1 0 0-1h-.25a1.251 1.251 0 0 1 0-2.5h.25a.5.5 0 1 0 0-1h-.25a1.251 1.251 0 0 1 0-2.5H27a.5.5 0 1 0 0-1h-.5v-2.25a1.251 1.251 0 0 1 2.5 0v9.786z"/><metadata><rdf:RDF xmlns:rdf="http://www.w3.org/1999/02/22-rdf-syntax-ns#" xmlns:rdfs="http://www.w3.org/2000/01/rdf-schema#" xmlns:dc="http://purl.org/dc/elements/1.1/"><rdf:Description about="https://iconscout.com/legal#licenses" dc:title="like,emot,emots,emoji,emote" dc:description="like,emot,emots,emoji,emote" dc:publisher="Iconscout" dc:date="2017-11-29" dc:format="image/svg+xml" dc:language="en"><dc:creator><rdf:Bag><rdf:li>Those Icons</rdf:li></rdf:Bag></dc:creator></rdf:Description></rdf:RDF></metadata></svg>