<?xml version="1.0" encoding="UTF-8"?><svg xmlns="http://www.w3.org/2000/svg" xmlns:xlink="http://www.w3.org/1999/xlink" version="1.1" id="Layer_1" x="0px" y="0px" viewBox="0 0 30 30" xml:space="preserve"><path fill="#303C42" d="M15 0C6.729 0 0 6.729 0 15s6.729 15 15 15 15-6.729 15-15S23.271 0 15 0zM8.833 12h-.666C6.972 12 6 11.103 6 10c0-1.05.884-1.904 2-1.984V7.5a.5.5 0 1 1 1 0V8h1.5a.5.5 0 1 1 0 1H8.167C7.523 9 7 9.448 7 10s.523 1 1.167 1h.666c1.195 0 2.167.897 2.167 2 0 1.05-.884 1.904-2 1.984v.516a.5.5 0 1 1-1 0V15H6.5a.5.5 0 1 1 0-1h2.333C9.477 14 10 13.552 10 13s-.523-1-1.167-1zM15 24.65a.5.5 0 0 0 .5-.5v-.766A3.724 3.724 0 0 1 17.122 23c1 0 2.378.87 2.378 1.5 0 1.932-2.66 3-4.5 3-2.082 0-4.4-1.232-4.403-3.05-.015-.15.074-.342.252-.538.456-.503 1.366-.912 2.03-.912.558 0 1.1.134 1.621.384v.766a.5.5 0 0 0 .5.5zm8.986-5.035c-.446 1.881-1.716 3.561-3.513 4.736-.142-1.31-2.067-2.351-3.351-2.351a4.72 4.72 0 0 0-2.122.506A4.72 4.72 0 0 0 12.878 22c-.939 0-2.13.533-2.77 1.241-.346.383-.513.795-.506 1.166-1.84-1.178-3.137-2.882-3.589-4.792A.501.501 0 0 1 6.5 19h17a.5.5 0 0 1 .486.615zM21.166 11h.667c1.195 0 2.167.897 2.167 2 0 1.05-.884 1.904-2 1.984v.516a.5.5 0 1 1-1 0V15h-1.5a.5.5 0 1 1 0-1h2.333c.644 0 1.167-.448 1.167-1s-.523-1-1.167-1h-.666C19.972 12 19 11.103 19 10c0-1.05.884-1.904 2-1.984V7.5a.5.5 0 1 1 1 0V8h1.5a.5.5 0 1 1 0 1h-2.333C20.523 9 20 9.448 20 10s.523 1 1.167 1z"/><metadata><rdf:RDF xmlns:rdf="http://www.w3.org/1999/02/22-rdf-syntax-ns#" xmlns:rdfs="http://www.w3.org/2000/01/rdf-schema#" xmlns:dc="http://purl.org/dc/elements/1.1/"><rdf:Description about="https://iconscout.com/legal#licenses" dc:title="money,emot,emots,emoji,emote" dc:description="money,emot,emots,emoji,emote" dc:publisher="Iconscout" dc:date="2017-11-29" dc:format="image/svg+xml" dc:language="en"><dc:creator><rdf:Bag><rdf:li>Those Icons</rdf:li></rdf:Bag></dc:creator></rdf:Description></rdf:RDF></metadata></svg>