<?xml version="1.0" encoding="UTF-8"?><svg xmlns="http://www.w3.org/2000/svg" xmlns:xlink="http://www.w3.org/1999/xlink" version="1.1" id="Layer_1" x="0px" y="0px" viewBox="0 0 30 30" xml:space="preserve"><path fill="#303C42" d="M15 0C6.729 0 0 6.729 0 15s6.729 15 15 15 15-6.729 15-15S23.271 0 15 0zm5 10a1 1 0 1 1-.002 1.998A1 1 0 0 1 20 10zm-10 0a1 1 0 1 1-.002 1.998A1 1 0 0 1 10 10zm8 14c-1.385 0-2.427-.642-3-1.481-.573.839-1.615 1.481-3 1.481-6.379 0-6.992-5.396-6.998-5.45a.5.5 0 0 1 .873-.38c.009.009.986 1.08 2.525 1.08.778 0 1.284-.264 1.869-.568.613-.32 1.309-.682 2.331-.682 1.204 0 1.96.498 2.4 1.186.44-.688 1.196-1.186 2.4-1.186 1.022 0 1.718.362 2.331.682.585.304 1.091.568 1.87.568 1.538 0 2.515-1.071 2.525-1.082a.502.502 0 0 1 .872.382c-.006.054-.62 5.45-6.998 5.45z"/><metadata><rdf:RDF xmlns:rdf="http://www.w3.org/1999/02/22-rdf-syntax-ns#" xmlns:rdfs="http://www.w3.org/2000/01/rdf-schema#" xmlns:dc="http://purl.org/dc/elements/1.1/"><rdf:Description about="https://iconscout.com/legal#licenses" dc:title="mustache,emot,emots,emoji,emote" dc:description="mustache,emot,emots,emoji,emote" dc:publisher="Iconscout" dc:date="2017-11-29" dc:format="image/svg+xml" dc:language="en"><dc:creator><rdf:Bag><rdf:li>Those Icons</rdf:li></rdf:Bag></dc:creator></rdf:Description></rdf:RDF></metadata></svg>