<?xml version="1.0" encoding="UTF-8"?><svg xmlns="http://www.w3.org/2000/svg" xmlns:xlink="http://www.w3.org/1999/xlink" version="1.1" id="Layer_1" x="0px" y="0px" viewBox="0 0 30 30" xml:space="preserve"><g fill="#303C42"><path d="M5 11.643A4.362 4.362 0 0 0 9.357 16 5.65 5.65 0 0 0 15 10.357 4.362 4.362 0 0 0 10.643 6 5.65 5.65 0 0 0 5 11.643z"/><path d="M.876 17.514a27.7 27.7 0 0 0 3.87-2.255.5.5 0 0 0 .133-.685A5.328 5.328 0 0 1 4 11.643 6.65 6.65 0 0 1 10.643 5c1.019 0 2.014.293 2.879.848a.501.501 0 0 0 .675-.127C15.554 3.85 16.51 2.124 16.96.729a.502.502 0 0 0-.425-.65A15.13 15.13 0 0 0 15 0C6.729 0 0 6.729 0 15c0 .65.053 1.327.168 2.132a.5.5 0 0 0 .708.382z"/><path d="M18.578.447a.502.502 0 0 0-.618.455c-.483 1.57-1.55 3.501-3.087 5.587a.5.5 0 0 0 .006.603A5.299 5.299 0 0 1 16 10.357 6.65 6.65 0 0 1 9.357 17a5.302 5.302 0 0 1-3.211-1.081.498.498 0 0 0-.59-.009c-1.465 1.04-3.07 1.974-4.48 2.617a1.581 1.581 0 0 0-.118.022.5.5 0 0 0-.358.623C2.445 25.548 8.366 30 15 30c8.271 0 15-6.729 15-15A14.955 14.955 0 0 0 18.578.447zM21.5 21h-13a.5.5 0 1 1 0-1h13a.5.5 0 1 1 0 1zM19 12a1.001 1.001 0 1 1 1 1c-.551 0-1-.448-1-1zm-.5-1a.5.5 0 1 1 0-1c1.535 0 3.37-1.195 3.507-1.554 0-.276.22-.473.497-.473.276 0 .496.25.496.527 0 1.104-2.79 2.5-4.5 2.5z"/></g><metadata><rdf:RDF xmlns:rdf="http://www.w3.org/1999/02/22-rdf-syntax-ns#" xmlns:rdfs="http://www.w3.org/2000/01/rdf-schema#" xmlns:dc="http://purl.org/dc/elements/1.1/"><rdf:Description about="https://iconscout.com/legal#licenses" dc:title="pirate,emot,emots,emoji,emote" dc:description="pirate,emot,emots,emoji,emote" dc:publisher="Iconscout" dc:date="2017-11-29" dc:format="image/svg+xml" dc:language="en"><dc:creator><rdf:Bag><rdf:li>Those Icons</rdf:li></rdf:Bag></dc:creator></rdf:Description></rdf:RDF></metadata></svg>