<?xml version="1.0" encoding="UTF-8"?><svg xmlns="http://www.w3.org/2000/svg" xmlns:xlink="http://www.w3.org/1999/xlink" version="1.1" id="Layer_1" x="0px" y="0px" viewBox="0 0 30 30" xml:space="preserve"><path fill="#303C42" d="M25.606 4.394C22.773 1.56 19.006 0 15 0S7.227 1.56 4.394 4.394 0 10.994 0 15s1.56 7.773 4.394 10.606S10.994 30 15 30s7.773-1.56 10.606-4.394S30 19.006 30 15s-1.56-7.773-4.394-10.606zm-13.58 2.948a.5.5 0 0 1 .632-.317L17.376 8.6l-2.305-3.842a.5.5 0 1 1 .858-.514l3 5a.498.498 0 0 1-.587.732l-6-2a.5.5 0 0 1-.316-.633zM7.5 3c.64 0 1.81.762 2.284 1.089a.499.499 0 0 1 0 .822C9.31 5.238 8.14 6 7.5 6 6.673 6 6 5.327 6 4.5S6.673 3 7.5 3zm14.908 20.148a10.992 10.992 0 0 1-15.186-.37c-4.166-4.167-4.329-10.837-.37-15.186a.5.5 0 0 1 .723-.017l14.85 14.85a.5.5 0 0 1-.017.723zm.25-5.173a.498.498 0 0 1-.632-.317l-2-6a.5.5 0 0 1 .731-.587l5 3a.5.5 0 1 1-.514.858l-3.841-2.305 1.572 4.718a.5.5 0 0 1-.316.633zM25.487 24c-.827 0-1.5-.673-1.5-1.5 0-.64.761-1.81 1.089-2.284.186-.27.635-.27.822 0 .328.473 1.089 1.644 1.089 2.284 0 .827-.673 1.5-1.5 1.5z"/><metadata><rdf:RDF xmlns:rdf="http://www.w3.org/1999/02/22-rdf-syntax-ns#" xmlns:rdfs="http://www.w3.org/2000/01/rdf-schema#" xmlns:dc="http://purl.org/dc/elements/1.1/"><rdf:Description about="https://iconscout.com/legal#licenses" dc:title="rotfl,emot,emots,emoji,emote" dc:description="rotfl,emot,emots,emoji,emote" dc:publisher="Iconscout" dc:date="2017-11-29" dc:format="image/svg+xml" dc:language="en"><dc:creator><rdf:Bag><rdf:li>Those Icons</rdf:li></rdf:Bag></dc:creator></rdf:Description></rdf:RDF></metadata></svg>