<?xml version="1.0" encoding="UTF-8"?><svg xmlns="http://www.w3.org/2000/svg" xmlns:xlink="http://www.w3.org/1999/xlink" version="1.1" id="Layer_1" x="0px" y="0px" viewBox="0 0 30 30" xml:space="preserve"><path fill="#303C42" d="M27.372 18.282A6.506 6.506 0 0 0 28 15.5c0-3.354-2.555-6.124-5.821-6.465C23.263 8.188 24 6.881 24 5.5 24 2.538 20.976 0 18.5 0a.5.5 0 0 0-.5.5C18 2.299 15.995 4 13.875 4h-1.25c-2.509 0-5.41 2.234-5.614 5.172C4.143 9.847 2 12.428 2 15.5c0 .96.216 1.914.628 2.782A6.494 6.494 0 0 0 0 23.5C0 27.084 2.916 30 6.5 30h17c3.584 0 6.5-2.916 6.5-6.5a6.494 6.494 0 0 0-2.628-5.218zM9.5 14.5h1a.5.5 0 0 1 .5.5 1.001 1.001 0 0 1-2 0 .5.5 0 0 1 .5-.5zm11.135 10.481a.5.5 0 0 1-.616-.346C19.513 22.828 17.626 21 15 21c-2.623 0-4.51 1.83-5.019 3.636a.5.5 0 1 1-.962-.272C9.73 21.836 12.246 20 15 20c2.758 0 5.273 1.836 5.981 4.365a.5.5 0 0 1-.346.616zM20 16c-.551 0-1-.448-1-1a.5.5 0 0 1 .5-.5h1a.5.5 0 0 1 .5.5c0 .552-.449 1-1 1z"/><metadata><rdf:RDF xmlns:rdf="http://www.w3.org/1999/02/22-rdf-syntax-ns#" xmlns:rdfs="http://www.w3.org/2000/01/rdf-schema#" xmlns:dc="http://purl.org/dc/elements/1.1/"><rdf:Description about="https://iconscout.com/legal#licenses" dc:title="sad,poo,emot,emots,emoji,emote" dc:description="sad,poo,emot,emots,emoji,emote" dc:publisher="Iconscout" dc:date="2017-11-29" dc:format="image/svg+xml" dc:language="en"><dc:creator><rdf:Bag><rdf:li>Those Icons</rdf:li></rdf:Bag></dc:creator></rdf:Description></rdf:RDF></metadata></svg>