<?xml version="1.0" encoding="UTF-8"?><svg xmlns="http://www.w3.org/2000/svg" xmlns:xlink="http://www.w3.org/1999/xlink" version="1.1" id="Layer_1" x="0px" y="0px" viewBox="0 0 30 30" xml:space="preserve"><path fill="#303C42" d="M15 0C6.729 0 0 6.729 0 15s6.729 15 15 15 15-6.729 15-15S23.271 0 15 0zm5 10a1.001 1.001 0 1 1-1 1c0-.551.448-1 1-1zm-10 0a1.001 1.001 0 1 1-1 1c0-.551.448-1 1-1zm-6 6c0-1.103.897-2 2-2s2 .897 2 2-.897 2-2 2-2-.897-2-2zm19.203 3.706A9.02 9.02 0 0 1 15 25a9.024 9.024 0 0 1-8.206-5.297.5.5 0 0 1 .912-.412A8.02 8.02 0 0 0 15 24a8.021 8.021 0 0 0 7.293-4.707.5.5 0 1 1 .91.413zM24 18c-1.103 0-2-.897-2-2s.897-2 2-2 2 .897 2 2-.897 2-2 2z"/><metadata><rdf:RDF xmlns:rdf="http://www.w3.org/1999/02/22-rdf-syntax-ns#" xmlns:rdfs="http://www.w3.org/2000/01/rdf-schema#" xmlns:dc="http://purl.org/dc/elements/1.1/"><rdf:Description about="https://iconscout.com/legal#licenses" dc:title="shy,emot,emots,emoji,emote" dc:description="shy,emot,emots,emoji,emote" dc:publisher="Iconscout" dc:date="2017-11-29" dc:format="image/svg+xml" dc:language="en"><dc:creator><rdf:Bag><rdf:li>Those Icons</rdf:li></rdf:Bag></dc:creator></rdf:Description></rdf:RDF></metadata></svg>