<?xml version="1.0" encoding="UTF-8"?><svg xmlns="http://www.w3.org/2000/svg" xmlns:xlink="http://www.w3.org/1999/xlink" version="1.1" id="Layer_1" x="0px" y="0px" viewBox="0 0 30 30" xml:space="preserve"><path fill="#303C42" d="M24.878 23.901C27.54 21.252 29 17.755 29 14c0-7.72-6.28-14-14-14S1 6.28 1 14c0 3.755 1.46 7.252 4.122 9.901l-.456.532a2.764 2.764 0 0 0 .635 4.146 2.78 2.78 0 0 0 3.68-.686l.71-.948a9.2 9.2 0 0 0 .309.12v.185c0 1.517 1.121 2.75 2.5 2.75 1.137 0 2.1-.832 2.396-2.002.069.002.14.002.208 0C15.399 29.168 16.364 30 17.5 30c1.379 0 2.5-1.233 2.5-2.75v-.185a9.2 9.2 0 0 0 .31-.12l.71.948a2.781 2.781 0 0 0 3.68.686 2.764 2.764 0 0 0 .634-4.146l-.456-.532zM9.5 17C7.019 17 5 14.981 5 12.5S7.019 8 9.5 8s4.5 2.019 4.5 4.5S11.981 17 9.5 17zm4.475 4.49c-.34.34-.787.509-1.233.509a1.743 1.743 0 0 1-1.231-2.974c.552-.552 2.358-.918 2.9-1.017a.499.499 0 0 1 .582.582c-.1.54-.466 2.347-1.018 2.9zm4.514 0c-.34.34-.786.509-1.231.509-.446 0-.893-.17-1.233-.51-.552-.552-.918-2.358-1.017-2.9a.5.5 0 0 1 .582-.581c.54.1 2.347.465 2.9 1.017.679.68.679 1.785 0 2.464zM20.5 17c-2.481 0-4.5-2.019-4.5-4.5S18.019 8 20.5 8s4.5 2.019 4.5 4.5-2.019 4.5-4.5 4.5z"/><metadata><rdf:RDF xmlns:rdf="http://www.w3.org/1999/02/22-rdf-syntax-ns#" xmlns:rdfs="http://www.w3.org/2000/01/rdf-schema#" xmlns:dc="http://purl.org/dc/elements/1.1/"><rdf:Description about="https://iconscout.com/legal#licenses" dc:title="skull,emot,emots,emoji,emote" dc:description="skull,emot,emots,emoji,emote" dc:publisher="Iconscout" dc:date="2017-11-29" dc:format="image/svg+xml" dc:language="en"><dc:creator><rdf:Bag><rdf:li>Those Icons</rdf:li></rdf:Bag></dc:creator></rdf:Description></rdf:RDF></metadata></svg>