<?xml version="1.0" encoding="UTF-8"?><svg xmlns="http://www.w3.org/2000/svg" xmlns:xlink="http://www.w3.org/1999/xlink" version="1.1" id="Layer_1" x="0px" y="0px" viewBox="0 0 30 30" xml:space="preserve"><path fill="#303C42" d="M29.5 6a.5.5 0 1 0 0-1h-1.793l2.147-2.146A.501.501 0 0 0 29.5 2h-3a.5.5 0 1 0 0 1h1.793l-2.076 2.076C23.467 1.97 19.464 0 15 0 6.729 0 0 6.729 0 15s6.729 15 15 15 15-6.729 15-15c0-3.379-1.136-6.49-3.028-9H29.5zM6 11a.5.5 0 1 1 1 0c0 1.654 1.346 3 3 3s3-1.346 3-3a.5.5 0 1 1 1 0c0 2.206-1.794 4-4 4s-4-1.794-4-4zm12.947 11.724c-.732 1.465-2.09 2.273-3.822 2.274h-.006c-1.916 0-3.322-.786-4.066-2.274a.5.5 0 0 1 .894-.448c.58 1.16 1.616 1.722 3.171 1.722h.007c1.709-.001 2.535-.937 2.928-1.722a.5.5 0 0 1 .895.447zM20 15c-2.206 0-4-1.794-4-4a.5.5 0 1 1 1 0c0 1.654 1.346 3 3 3s3-1.346 3-3a.5.5 0 1 1 1 0c0 2.206-1.794 4-4 4zm5-5h-3a.5.5 0 0 1-.354-.854L23.793 7H22a.5.5 0 1 1 0-1h3a.5.5 0 0 1 .354.854L23.207 9H25a.5.5 0 1 1 0 1z"/><metadata><rdf:RDF xmlns:rdf="http://www.w3.org/1999/02/22-rdf-syntax-ns#" xmlns:rdfs="http://www.w3.org/2000/01/rdf-schema#" xmlns:dc="http://purl.org/dc/elements/1.1/"><rdf:Description about="https://iconscout.com/legal#licenses" dc:title="sleeping,emot,emots,emoji,emote" dc:description="sleeping,emot,emots,emoji,emote" dc:publisher="Iconscout" dc:date="2017-11-29" dc:format="image/svg+xml" dc:language="en"><dc:creator><rdf:Bag><rdf:li>Those Icons</rdf:li></rdf:Bag></dc:creator></rdf:Description></rdf:RDF></metadata></svg>