<?xml version="1.0" encoding="UTF-8"?><svg xmlns="http://www.w3.org/2000/svg" xmlns:xlink="http://www.w3.org/1999/xlink" version="1.1" id="Layer_1" x="0px" y="0px" viewBox="0 0 30 30" xml:space="preserve"><path fill="#303C42" d="M27.372 18.282A6.506 6.506 0 0 0 28 15.5c0-3.354-2.555-6.124-5.821-6.465C23.263 8.188 24 6.881 24 5.5 24 2.538 20.976 0 18.5 0a.5.5 0 0 0-.5.5C18 2.299 15.995 4 13.875 4h-1.25c-2.509 0-5.41 2.234-5.614 5.172C4.143 9.847 2 12.428 2 15.5c0 .96.216 1.914.628 2.782A6.494 6.494 0 0 0 0 23.5C0 27.084 2.916 30 6.5 30h17c3.584 0 6.5-2.916 6.5-6.5a6.494 6.494 0 0 0-2.628-5.218zM10 14a1 1 0 1 1-.002 1.998A1 1 0 0 1 10 14zm10.981 6.636C20.27 23.164 17.754 25 15 25c-2.758 0-5.273-1.836-5.981-4.365a.5.5 0 1 1 .962-.27C10.487 22.172 12.374 24 15 24c2.623 0 4.51-1.83 5.019-3.636a.5.5 0 0 1 .963.271zM20 16a1.001 1.001 0 0 1 0-2 1.001 1.001 0 0 1 0 2z"/><metadata><rdf:RDF xmlns:rdf="http://www.w3.org/1999/02/22-rdf-syntax-ns#" xmlns:rdfs="http://www.w3.org/2000/01/rdf-schema#" xmlns:dc="http://purl.org/dc/elements/1.1/"><rdf:Description about="https://iconscout.com/legal#licenses" dc:title="smiling,poo,emot,emots,emoji,emote" dc:description="smiling,poo,emot,emots,emoji,emote" dc:publisher="Iconscout" dc:date="2017-11-29" dc:format="image/svg+xml" dc:language="en"><dc:creator><rdf:Bag><rdf:li>Those Icons</rdf:li></rdf:Bag></dc:creator></rdf:Description></rdf:RDF></metadata></svg>