<?xml version="1.0" encoding="UTF-8"?><svg xmlns="http://www.w3.org/2000/svg" xmlns:xlink="http://www.w3.org/1999/xlink" version="1.1" id="Layer_1" x="0px" y="0px" viewBox="0 0 30 30" xml:space="preserve"><path fill="#303C42" d="M15 0C6.729 0 0 6.729 0 15s6.729 15 15 15 15-6.729 15-15S23.271 0 15 0zM5.2 12.1l4-3a.498.498 0 0 1 .6 0l4 3a.5.5 0 1 1-.6.8l-3.7-2.775L5.8 12.9a.5.5 0 0 1-.6-.8zM15 25a9.006 9.006 0 0 1-8.816-7.212c-.177.07-.35.144-.563.197a.497.497 0 0 1-.606-.364.5.5 0 0 1 .364-.606C6.924 16.63 6.997 15.608 7 15.493c.008-.273.253-.447.507-.49A.497.497 0 0 1 8 15.5c0 .055-.03.997-.896 1.747A8.002 8.002 0 0 0 15 24a.5.5 0 1 1 0 1zm9.9-12.2a.498.498 0 0 1-.7.1l-3.7-2.775-3.7 2.775a.5.5 0 0 1-.6-.8l4-3a.498.498 0 0 1 .6 0l4 3a.5.5 0 0 1 .1.7z"/><metadata><rdf:RDF xmlns:rdf="http://www.w3.org/1999/02/22-rdf-syntax-ns#" xmlns:rdfs="http://www.w3.org/2000/01/rdf-schema#" xmlns:dc="http://purl.org/dc/elements/1.1/"><rdf:Description about="https://iconscout.com/legal#licenses" dc:title="smile,emot,emots,emoji,emote" dc:description="smile,emot,emots,emoji,emote" dc:publisher="Iconscout" dc:date="2017-11-29" dc:format="image/svg+xml" dc:language="en"><dc:creator><rdf:Bag><rdf:li>Those Icons</rdf:li></rdf:Bag></dc:creator></rdf:Description></rdf:RDF></metadata></svg>