<?xml version="1.0" encoding="UTF-8"?><svg xmlns="http://www.w3.org/2000/svg" xmlns:xlink="http://www.w3.org/1999/xlink" version="1.1" id="Layer_1" x="0px" y="0px" viewBox="0 0 30 30" xml:space="preserve"><path fill="#303C42" d="M15 0C6.729 0 0 6.729 0 15s6.729 15 15 15 15-6.729 15-15S23.271 0 15 0zM6 10.5a.5.5 0 1 1 1 0c0 1.379 1.346 2.5 3 2.5s3-1.121 3-2.5a.5.5 0 1 1 1 0c0 1.93-1.794 3.5-4 3.5s-4-1.57-4-3.5zM15 27c-2.206 0-4-1.794-4-4s1.794-4 4-4 4 1.794 4 4-1.794 4-4 4zm8.5-6h-3a.501.501 0 0 1-.4-.8l2.4-3.2h-2a.5.5 0 1 1 0-1h3a.501.501 0 0 1 .4.8L21.5 20h2a.5.5 0 1 1 0 1zM20 14c-2.206 0-4-1.57-4-3.5a.5.5 0 1 1 1 0c0 1.379 1.346 2.5 3 2.5s3-1.121 3-2.5a.5.5 0 1 1 1 0c0 1.93-1.794 3.5-4 3.5zm7.5 4h-2a.5.5 0 0 1-.416-.777L26.566 15H25.5a.5.5 0 1 1 0-1h2a.5.5 0 0 1 .416.777L26.434 17H27.5a.5.5 0 1 1 0 1z"/><metadata><rdf:RDF xmlns:rdf="http://www.w3.org/1999/02/22-rdf-syntax-ns#" xmlns:rdfs="http://www.w3.org/2000/01/rdf-schema#" xmlns:dc="http://purl.org/dc/elements/1.1/"><rdf:Description about="https://iconscout.com/legal#licenses" dc:title="snoring,emot,emots,emoji,emote" dc:description="snoring,emot,emots,emoji,emote" dc:publisher="Iconscout" dc:date="2017-11-29" dc:format="image/svg+xml" dc:language="en"><dc:creator><rdf:Bag><rdf:li>Those Icons</rdf:li></rdf:Bag></dc:creator></rdf:Description></rdf:RDF></metadata></svg>