<?xml version="1.0" encoding="UTF-8"?><svg xmlns="http://www.w3.org/2000/svg" xmlns:xlink="http://www.w3.org/1999/xlink" version="1.1" id="Layer_1" x="0px" y="0px" viewBox="0 0 30 30" xml:space="preserve"><path fill="#303C42" d="M15 0C6.729 0 0 6.729 0 15s6.729 15 15 15 15-6.729 15-15S23.271 0 15 0zM6.5 11a.5.5 0 1 1 0-1h3a.5.5 0 0 1 .35.857c.093.195.15.412.15.643 0 .827-.673 1.5-1.5 1.5S7 12.327 7 11.5c0-.176.036-.343.092-.5H6.5zm16.323 11.88a.496.496 0 0 1-.704-.057C20.527 20.95 18.132 20 15 20c-3.13 0-5.526.95-7.12 2.824a.5.5 0 1 1-.76-.648C8.91 20.068 11.561 19 15 19c3.44 0 6.09 1.068 7.88 3.177a.499.499 0 0 1-.057.704zM23 11.5c0 .827-.673 1.5-1.5 1.5s-1.5-.673-1.5-1.5c0-.176.036-.343.092-.5H19.5a.5.5 0 1 1 0-1h3a.5.5 0 0 1 .35.857c.093.195.15.412.15.643z"/><metadata><rdf:RDF xmlns:rdf="http://www.w3.org/1999/02/22-rdf-syntax-ns#" xmlns:rdfs="http://www.w3.org/2000/01/rdf-schema#" xmlns:dc="http://purl.org/dc/elements/1.1/"><rdf:Description about="https://iconscout.com/legal#licenses" dc:title="unamused,emot,emots,emoji,emote" dc:description="unamused,emot,emots,emoji,emote" dc:publisher="Iconscout" dc:date="2017-11-29" dc:format="image/svg+xml" dc:language="en"><dc:creator><rdf:Bag><rdf:li>Those Icons</rdf:li></rdf:Bag></dc:creator></rdf:Description></rdf:RDF></metadata></svg>