<?xml version="1.0" encoding="UTF-8"?><svg xmlns="http://www.w3.org/2000/svg" xmlns:xlink="http://www.w3.org/1999/xlink" version="1.1" id="Layer_1" x="0px" y="0px" viewBox="0 0 30 30" xml:space="preserve"><path fill="#303C42" d="M15 0C6.729 0 0 6.729 0 15s6.729 15 15 15 15-6.729 15-15S23.271 0 15 0zm5 10a1.001 1.001 0 1 1-1 1c0-.551.448-1 1-1zm-11.5.5h3a.5.5 0 1 1 0 1h-3a.5.5 0 1 1 0-1zM15 25c-4.763 0-8.709-3.72-8.984-8.471a.5.5 0 0 1 .47-.528c.317-.001.512.195.528.47C7.259 20.693 10.767 24 15 24s7.741-3.307 7.986-7.529a.5.5 0 1 1 .998.058C23.71 21.279 19.763 25 15 25z"/><metadata><rdf:RDF xmlns:rdf="http://www.w3.org/1999/02/22-rdf-syntax-ns#" xmlns:rdfs="http://www.w3.org/2000/01/rdf-schema#" xmlns:dc="http://purl.org/dc/elements/1.1/"><rdf:Description about="https://iconscout.com/legal#licenses" dc:title="wink,emot,emots,emoji,emote" dc:description="wink,emot,emots,emoji,emote" dc:publisher="Iconscout" dc:date="2017-11-29" dc:format="image/svg+xml" dc:language="en"><dc:creator><rdf:Bag><rdf:li>Those Icons</rdf:li></rdf:Bag></dc:creator></rdf:Description></rdf:RDF></metadata></svg>