<?xml version="1.0" encoding="UTF-8"?><svg xmlns="http://www.w3.org/2000/svg" xmlns:xlink="http://www.w3.org/1999/xlink" version="1.1" id="Layer_1" x="0px" y="0px" viewBox="0 0 30 30" xml:space="preserve"><path fill="#303C42" d="M15 0C6.729 0 0 6.729 0 15s6.729 15 15 15 15-6.729 15-15S23.271 0 15 0zM6.31 6.962a.5.5 0 0 1 .38-.924l8.12 3.343a.5.5 0 0 0 .38 0l8.12-3.343a.5.5 0 0 1 .38.925l-6.254 2.575a.5.5 0 0 0 0 .924l6.254 2.576a.5.5 0 0 1-.38.924l-8.12-3.343a.5.5 0 0 0-.38 0l-8.12 3.343a.5.5 0 0 1-.38-.925l6.254-2.575a.5.5 0 0 0 0-.924L6.31 6.962zm14.144 17.589a.502.502 0 0 0-.023-.122C20.23 23.859 19.358 22 16.667 22c-.114 0-.987.014-1.667.427-.68-.413-1.553-.427-1.667-.427-2.697 0-3.564 1.863-3.766 2.434-.013.038-.017.077-.021.117-3.17-1.806-5.363-5.132-5.546-9.028A.5.5 0 0 1 4.5 15h21a.5.5 0 0 1 .5.523c-.183 3.896-2.376 7.222-5.546 9.028z"/><metadata><rdf:RDF xmlns:rdf="http://www.w3.org/1999/02/22-rdf-syntax-ns#" xmlns:rdfs="http://www.w3.org/2000/01/rdf-schema#" xmlns:dc="http://purl.org/dc/elements/1.1/"><rdf:Description about="https://iconscout.com/legal#licenses" dc:title="xd,emot,emots,emoji,emote" dc:description="xd,emot,emots,emoji,emote" dc:publisher="Iconscout" dc:date="2017-11-29" dc:format="image/svg+xml" dc:language="en"><dc:creator><rdf:Bag><rdf:li>Those Icons</rdf:li></rdf:Bag></dc:creator></rdf:Description></rdf:RDF></metadata></svg>