<svg width="300" height="100" viewBox="0 0 448 139" fill="none" xmlns="http://www.w3.org/2000/svg">
<path d="M99.6418 56.688C99.6418 54.6827 100.004 52.8267 100.73 51.12C101.455 49.3707 102.436 47.8773 103.674 46.64C104.911 45.36 106.362 44.3573 108.026 43.632C109.69 42.9067 111.46 42.544 113.338 42.544C114.788 42.544 116.068 42.736 117.178 43.12C118.33 43.504 119.29 43.952 120.058 44.464C120.826 44.976 121.423 45.488 121.85 46C122.319 46.4693 122.618 46.8107 122.746 47.024C122.746 46.4267 122.788 45.808 122.874 45.168C122.959 44.4853 123.002 43.8453 123.002 43.248H128.25V68.784C128.25 73.2213 126.948 76.6773 124.346 79.152C121.743 81.6267 118.223 82.864 113.786 82.864C112.25 82.864 110.863 82.6933 109.626 82.352C108.431 82.0533 107.322 81.648 106.298 81.136C105.316 80.624 104.399 80.0267 103.546 79.344C102.735 78.6613 101.924 77.9573 101.114 77.232L104.634 73.52C105.956 74.7573 107.3 75.7387 108.666 76.464C110.074 77.1893 111.738 77.552 113.658 77.552C116.516 77.552 118.735 76.8693 120.314 75.504C121.892 74.1387 122.703 72.24 122.746 69.808V67.952C122.746 67.6107 122.788 67.248 122.874 66.864C122.959 66.4373 123.002 66.1173 123.002 65.904C122.618 66.416 122.127 66.9707 121.53 67.568C120.975 68.1227 120.314 68.6347 119.546 69.104C118.778 69.5307 117.882 69.8933 116.858 70.192C115.834 70.4907 114.682 70.64 113.402 70.64C111.396 70.64 109.562 70.2773 107.898 69.552C106.234 68.8267 104.783 67.8453 103.546 66.608C102.308 65.328 101.348 63.856 100.666 62.192C99.9831 60.4853 99.6418 58.6507 99.6418 56.688ZM105.146 56.56C105.146 57.7973 105.359 58.9493 105.786 60.016C106.255 61.0827 106.874 62 107.642 62.768C108.41 63.536 109.327 64.1547 110.394 64.624C111.46 65.0507 112.634 65.264 113.914 65.264C115.194 65.264 116.367 65.0507 117.434 64.624C118.543 64.1547 119.482 63.536 120.25 62.768C121.06 61.9573 121.679 61.04 122.106 60.016C122.532 58.9493 122.746 57.7973 122.746 56.56C122.746 55.3227 122.532 54.192 122.106 53.168C121.679 52.1013 121.06 51.184 120.25 50.416C119.482 49.648 118.543 49.0507 117.434 48.624C116.367 48.1547 115.194 47.92 113.914 47.92C112.634 47.92 111.46 48.1547 110.394 48.624C109.327 49.0507 108.41 49.648 107.642 50.416C106.874 51.184 106.255 52.1013 105.786 53.168C105.359 54.192 105.146 55.3227 105.146 56.56ZM135.23 33.008C135.23 31.984 135.592 31.1307 136.318 30.448C137.086 29.7653 137.896 29.424 138.75 29.424C139.603 29.424 140.392 29.7653 141.118 30.448C141.843 31.1307 142.206 31.984 142.206 33.008C142.206 34.032 141.843 34.8853 141.118 35.568C140.392 36.208 139.603 36.528 138.75 36.528C137.896 36.528 137.086 36.208 136.318 35.568C135.592 34.8853 135.23 34.032 135.23 33.008ZM141.374 70H135.934V43.248H141.374V70ZM146.755 48.56V43.184H151.299V36.976C151.299 31.3867 152.6 27.248 155.203 24.56C157.848 21.8293 161.581 20.4 166.403 20.272V25.52C163.075 25.6907 160.643 26.7573 159.107 28.72C157.571 30.6827 156.803 33.4773 156.803 37.104V43.184H165.251V48.56H156.803V70H151.299V48.56H146.755Z" fill="#FF8A00"/>
<path d="M164.052 79.6V73.008C167.038 72.8373 169.47 71.8133 171.348 69.936C173.268 68.0587 174.228 65.136 174.228 61.168V23.6H181.268V61.36C181.268 64.2187 180.841 66.7573 179.988 68.976C179.134 71.1947 177.94 73.072 176.404 74.608C174.868 76.1867 173.033 77.3813 170.9 78.192C168.809 79.0453 166.526 79.5147 164.052 79.6ZM187.39 56.56C187.39 54.64 187.753 52.8267 188.478 51.12C189.246 49.4133 190.27 47.9413 191.55 46.704C192.83 45.424 194.324 44.4213 196.03 43.696C197.78 42.928 199.657 42.544 201.662 42.544C203.668 42.544 205.524 42.928 207.23 43.696C208.98 44.4213 210.473 45.424 211.71 46.704C212.99 47.9413 213.972 49.4133 214.654 51.12C215.38 52.8267 215.742 54.64 215.742 56.56C215.742 58.48 215.38 60.2933 214.654 62C213.972 63.7067 212.99 65.2 211.71 66.48C210.473 67.76 208.98 68.784 207.23 69.552C205.524 70.2773 203.646 70.64 201.598 70.64C199.636 70.64 197.78 70.2987 196.03 69.616C194.324 68.9333 192.83 67.9733 191.55 66.736C190.27 65.4987 189.246 64.0267 188.478 62.32C187.753 60.5707 187.39 58.6507 187.39 56.56ZM192.83 56.624C192.83 57.8187 193.044 58.9493 193.47 60.016C193.94 61.04 194.558 61.9573 195.326 62.768C196.137 63.536 197.054 64.1547 198.078 64.624C199.145 65.0507 200.276 65.264 201.47 65.264C202.665 65.264 203.796 65.0507 204.862 64.624C205.929 64.1547 206.846 63.536 207.614 62.768C208.425 61.9573 209.065 61.04 209.534 60.016C210.004 58.9493 210.238 57.8187 210.238 56.624C210.238 55.4293 210.004 54.2987 209.534 53.232C209.065 52.1653 208.425 51.248 207.614 50.48C206.846 49.6693 205.929 49.0507 204.862 48.624C203.796 48.1547 202.665 47.92 201.47 47.92C200.276 47.92 199.145 48.1547 198.078 48.624C197.054 49.0507 196.137 49.6693 195.326 50.48C194.558 51.248 193.94 52.1653 193.47 53.232C193.044 54.2987 192.83 55.4293 192.83 56.624ZM246.455 70.576H241.847L241.207 63.152C240.225 65.328 238.839 67.12 237.047 68.528C235.297 69.936 233.057 70.64 230.327 70.64C227.596 70.64 225.42 69.9147 223.799 68.464C222.22 66.9707 221.388 65.0293 221.303 62.64V43.248H226.743V60.208C226.828 61.5307 227.297 62.6613 228.151 63.6C229.047 64.5387 230.412 65.072 232.247 65.2C233.527 65.2 234.7 64.9867 235.767 64.56C236.833 64.0907 237.751 63.472 238.519 62.704C239.287 61.936 239.884 61.0187 240.311 59.952C240.737 58.8853 240.951 57.712 240.951 56.432V43.248H246.455V70.576ZM268.841 49.584C267.647 49.584 266.495 49.7547 265.385 50.096C264.276 50.3947 263.273 50.864 262.377 51.504C261.524 52.144 260.841 52.9547 260.329 53.936C259.817 54.8747 259.561 55.9627 259.561 57.2V70H254.121V43.248H258.921C259.007 44.5707 259.071 45.7867 259.113 46.896C259.199 47.9627 259.284 49.0293 259.369 50.096C259.924 48.944 260.649 47.8987 261.545 46.96C262.441 46.0213 263.401 45.232 264.425 44.592C265.449 43.952 266.452 43.4613 267.433 43.12C268.415 42.736 269.289 42.544 270.057 42.544L268.841 49.584ZM273.996 43.248H278.796C278.882 44.5707 278.946 45.7867 278.988 46.896C279.074 47.9627 279.159 49.0293 279.244 50.096C280.226 47.792 281.612 45.9573 283.404 44.592C285.239 43.2267 287.479 42.544 290.124 42.544C292.812 42.544 294.967 43.2907 296.588 44.784C298.21 46.2773 299.063 48.1973 299.148 50.544V70H293.644V53.04C293.559 51.6747 293.09 50.5227 292.236 49.584C291.383 48.6027 290.039 48.0693 288.204 47.984C286.924 47.984 285.751 48.2187 284.684 48.688C283.618 49.1147 282.7 49.712 281.932 50.48C281.164 51.248 280.546 52.1653 280.076 53.232C279.65 54.2987 279.436 55.472 279.436 56.752V70H273.996V43.248ZM304.703 56.88C304.703 54.9173 305.065 53.0827 305.791 51.376C306.559 49.6267 307.583 48.112 308.863 46.832C310.143 45.5093 311.615 44.464 313.279 43.696C314.985 42.928 316.799 42.544 318.719 42.544C319.999 42.544 321.172 42.7147 322.239 43.056C323.305 43.3547 324.223 43.7387 324.991 44.208C325.759 44.6773 326.377 45.168 326.847 45.68C327.316 46.192 327.636 46.64 327.807 47.024L328.063 43.248H333.311V70H327.807V66.608C327.593 66.9493 327.252 67.3547 326.783 67.824C326.313 68.2933 325.695 68.7413 324.927 69.168C324.201 69.552 323.327 69.8933 322.303 70.192C321.279 70.4907 320.105 70.64 318.783 70.64C316.735 70.64 314.836 70.2773 313.087 69.552C311.38 68.784 309.908 67.7813 308.671 66.544C307.433 65.264 306.452 63.792 305.727 62.128C305.044 60.464 304.703 58.7147 304.703 56.88ZM310.207 56.56C310.207 57.7973 310.42 58.9493 310.847 60.016C311.316 61.0827 311.935 62 312.703 62.768C313.471 63.536 314.388 64.1547 315.455 64.624C316.521 65.0507 317.695 65.264 318.975 65.264C320.255 65.264 321.428 65.0507 322.495 64.624C323.604 64.1547 324.543 63.536 325.311 62.768C326.121 61.9573 326.74 61.04 327.167 60.016C327.593 58.9493 327.807 57.7973 327.807 56.56C327.807 55.3227 327.593 54.192 327.167 53.168C326.74 52.1013 326.121 51.184 325.311 50.416C324.543 49.648 323.604 49.0507 322.495 48.624C321.428 48.1547 320.255 47.92 318.975 47.92C317.695 47.92 316.521 48.1547 315.455 48.624C314.388 49.0507 313.471 49.648 312.703 50.416C311.935 51.184 311.316 52.1013 310.847 53.168C310.42 54.192 310.207 55.3227 310.207 56.56ZM346.5 70H341.06V20.272H346.5V70Z" fill="#28C700"/>
<rect x="95" y="64" width="11" height="11" transform="rotate(45 95 64)" fill="#FF8A00"/>
</svg>
