<svg width="356" height="145" viewBox="0 0 356 145" fill="none" xmlns="http://www.w3.org/2000/svg">
<path d="M152.329 56.688C152.329 54.6827 152.692 52.8267 153.417 51.12C154.143 49.3707 155.124 47.8773 156.361 46.64C157.599 45.36 159.049 44.3573 160.713 43.632C162.377 42.9067 164.148 42.544 166.025 42.544C167.476 42.544 168.756 42.736 169.865 43.12C171.017 43.504 171.977 43.952 172.745 44.464C173.513 44.976 174.111 45.488 174.537 46C175.007 46.4693 175.305 46.8107 175.433 47.024C175.433 46.4267 175.476 45.808 175.561 45.168C175.647 44.4853 175.689 43.8453 175.689 43.248H180.937V68.784C180.937 73.2213 179.636 76.6773 177.033 79.152C174.431 81.6267 170.911 82.864 166.473 82.864C164.937 82.864 163.551 82.6933 162.313 82.352C161.119 82.0533 160.009 81.648 158.985 81.136C158.004 80.624 157.087 80.0267 156.233 79.344C155.423 78.6613 154.612 77.9573 153.801 77.232L157.321 73.52C158.644 74.7573 159.988 75.7387 161.353 76.464C162.761 77.1893 164.425 77.552 166.345 77.552C169.204 77.552 171.423 76.8693 173.001 75.504C174.58 74.1387 175.391 72.24 175.433 69.808V67.952C175.433 67.6107 175.476 67.248 175.561 66.864C175.647 66.4373 175.689 66.1173 175.689 65.904C175.305 66.416 174.815 66.9707 174.217 67.568C173.663 68.1227 173.001 68.6347 172.233 69.104C171.465 69.5307 170.569 69.8933 169.545 70.192C168.521 70.4907 167.369 70.64 166.089 70.64C164.084 70.64 162.249 70.2773 160.585 69.552C158.921 68.8267 157.471 67.8453 156.233 66.608C154.996 65.328 154.036 63.856 153.353 62.192C152.671 60.4853 152.329 58.6507 152.329 56.688ZM157.833 56.56C157.833 57.7973 158.047 58.9493 158.473 60.016C158.943 61.0827 159.561 62 160.329 62.768C161.097 63.536 162.015 64.1547 163.081 64.624C164.148 65.0507 165.321 65.264 166.601 65.264C167.881 65.264 169.055 65.0507 170.121 64.624C171.231 64.1547 172.169 63.536 172.937 62.768C173.748 61.9573 174.367 61.04 174.793 60.016C175.22 58.9493 175.433 57.7973 175.433 56.56C175.433 55.3227 175.22 54.192 174.793 53.168C174.367 52.1013 173.748 51.184 172.937 50.416C172.169 49.648 171.231 49.0507 170.121 48.624C169.055 48.1547 167.881 47.92 166.601 47.92C165.321 47.92 164.148 48.1547 163.081 48.624C162.015 49.0507 161.097 49.648 160.329 50.416C159.561 51.184 158.943 52.1013 158.473 53.168C158.047 54.192 157.833 55.3227 157.833 56.56Z" fill="#FF8A00"/>
<path d="M182.989 79.6V73.008C185.976 72.8373 188.408 71.8133 190.285 69.936C192.205 68.0587 193.165 65.136 193.165 61.168V23.6H200.205V61.36C200.205 64.2187 199.779 66.7573 198.925 68.976C198.072 71.1947 196.877 73.072 195.341 74.608C193.805 76.1867 191.971 77.3813 189.837 78.192C187.747 79.0453 185.464 79.5147 182.989 79.6Z" fill="#28C700"/>
<rect x="147" y="64" width="11" height="11" transform="rotate(45 147 64)" fill="#FF8A00"/>
</svg>
