<?xml version="1.0" encoding="UTF-8"?><svg xmlns="http://www.w3.org/2000/svg" xmlns:xlink="http://www.w3.org/1999/xlink" version="1.1" id="Layer_1" x="0px" y="0px" viewBox="0 0 30 30" xml:space="preserve"><g fill="#303C42"><path d="M15 8c6.302 0 13-1.402 13-4s-6.698-4-13-4S2 1.402 2 4s6.698 4 13 4zm0-7c7.435 0 12 1.747 12 3 0 .55-.88 1.195-2.497 1.746C21.903 3.334 18.545 2 15 2S8.096 3.334 5.497 5.746C3.881 5.196 3 4.55 3 4c0-1.253 4.565-3 12-3z"/><path d="M26.19 7.611a.5.5 0 0 0-.582-.166C23.084 8.434 19.218 9 15 9S6.916 8.434 4.392 7.445a.498.498 0 0 0-.582.166A13.871 13.871 0 0 0 1 16c0 7.72 6.28 14 14 14s14-6.28 14-14c0-3.04-.972-5.94-2.81-8.389zM20 11c1.654 0 3 1.346 3 3a.5.5 0 1 1-1 0c0-1.103-.897-2-2-2s-2 .897-2 2a.5.5 0 1 1-1 0c0-1.654 1.346-3 3-3zm-10 0c1.654 0 3 1.346 3 3a.5.5 0 1 1-1 0c0-1.103-.897-2-2-2s-2 .897-2 2a.5.5 0 1 1-1 0c0-1.654 1.346-3 3-3zm13.986 8.615c-.462 1.947-1.787 3.633-3.567 4.785-.218-.598-1.097-2.4-3.752-2.4-.114 0-.987.014-1.667.428-.68-.414-1.553-.428-1.667-.428-2.656 0-3.534 1.8-3.753 2.401-1.781-1.151-3.107-2.838-3.567-4.786A.501.501 0 0 1 6.5 19h17a.5.5 0 0 1 .486.615z"/></g><metadata><rdf:RDF xmlns:rdf="http://www.w3.org/1999/02/22-rdf-syntax-ns#" xmlns:rdfs="http://www.w3.org/2000/01/rdf-schema#" xmlns:dc="http://purl.org/dc/elements/1.1/"><rdf:Description about="https://iconscout.com/legal#licenses" dc:title="angel,emot,emots,emoji,emote" dc:description="angel,emot,emots,emoji,emote" dc:publisher="Iconscout" dc:date="2017-11-29" dc:format="image/svg+xml" dc:language="en"><dc:creator><rdf:Bag><rdf:li>Those Icons</rdf:li></rdf:Bag></dc:creator></rdf:Description></rdf:RDF></metadata></svg>