<?xml version="1.0" encoding="UTF-8"?><svg xmlns="http://www.w3.org/2000/svg" xmlns:xlink="http://www.w3.org/1999/xlink" version="1.1" id="Layer_1" x="0px" y="0px" viewBox="0 0 30 30" xml:space="preserve"><path fill="#303C42" d="M30 3.654C30 1.64 28.344 0 26.309 0c-.62 0-1.222.152-1.76.442A2.552 2.552 0 0 0 23.116 0c-1.449 0-2.628 1.168-2.628 2.603 0 .414.103.805.282 1.153A14.014 14.014 0 0 0 14 2C5.753 2-.851 9.167.09 17.6c.714 6.406 5.904 11.596 12.31 12.31C20.833 30.852 28 24.248 28 16c0-2.416-.635-4.792-1.811-6.88.356.185.756.291 1.183.291C28.822 9.411 30 8.243 30 6.81c0-.506-.152-.99-.444-1.417A3.6 3.6 0 0 0 30 3.654zM9 16a1 1 0 1 1 .001-2.001A1 1 0 0 1 9 16zm1.5-2C8.79 14 6 12.604 6 11.5a.5.5 0 1 1 1 0c.13.305 1.966 1.5 3.5 1.5a.5.5 0 1 1 0 1zm6 9h-5a.5.5 0 1 1 0-1h5a.5.5 0 1 1 0 1zm2.5-7a1 1 0 1 1 .001-2.001A1 1 0 0 1 19 16zm-1.5-2a.5.5 0 1 1 0-1c1.534 0 3.37-1.195 3.508-1.554 0-.276.22-.473.496-.473s.496.25.496.527c0 1.104-2.79 2.5-4.5 2.5zm11.076-8.24c.194.216.424.572.424 1.049 0 .883-.73 1.602-1.628 1.602-.759 0-1.398-.533-1.556-1.297a.498.498 0 0 0-.65-.373c-1.015.345-2.036.843-2.887 1.292.511-.884.885-1.982 1.115-3.284a.5.5 0 0 0-.44-.584c-.836-.087-1.466-.759-1.466-1.562 0-.884.73-1.603 1.628-1.603.487 0 .85.23 1.07.422.17.15.42.165.609.039.447-.302.97-.461 1.514-.461C27.793 1 29 2.19 29 3.654a2.61 2.61 0 0 1-.464 1.489.5.5 0 0 0 .04.617z"/><metadata><rdf:RDF xmlns:rdf="http://www.w3.org/1999/02/22-rdf-syntax-ns#" xmlns:rdfs="http://www.w3.org/2000/01/rdf-schema#" xmlns:dc="http://purl.org/dc/elements/1.1/"><rdf:Description about="https://iconscout.com/legal#licenses" dc:title="angry,emot,emots,emoji,emote" dc:description="angry,emot,emots,emoji,emote" dc:publisher="Iconscout" dc:date="2017-11-29" dc:format="image/svg+xml" dc:language="en"><dc:creator><rdf:Bag><rdf:li>Those Icons</rdf:li></rdf:Bag></dc:creator></rdf:Description></rdf:RDF></metadata></svg>