<?xml version="1.0" encoding="UTF-8"?><svg xmlns="http://www.w3.org/2000/svg" xmlns:xlink="http://www.w3.org/1999/xlink" version="1.1" id="Layer_1" x="0px" y="0px" viewBox="0 0 30 30" xml:space="preserve"><path fill="#303C42" d="M15 0C6.729 0 0 6.729 0 15s6.729 15 15 15 15-6.729 15-15S23.271 0 15 0zM6.5 15a.5.5 0 0 1-.224-.947l5.106-2.553-5.106-2.553a.5.5 0 0 1 .448-.894l6 3a.501.501 0 0 1 0 .894l-6 3A.504.504 0 0 1 6.5 15zm12 3c1.326 0 2.521.744 3.121 1.942a.5.5 0 0 1-.258.687l-1.82.744a.498.498 0 0 1-.398-.009l-1.775-.818a.499.499 0 0 0-.419 0l-1.747.807a.5.5 0 0 1-.42 0l-1.747-.807a.493.493 0 0 0-.418 0l-1.74.804a.495.495 0 0 1-.424-.002l-1.781-.845a.5.5 0 0 1-.223-.695A3.5 3.5 0 0 1 11.5 18h7zm0 7h-7a3.511 3.511 0 0 1-3.427-2.788.498.498 0 0 1 .703-.553l1.672.793a.5.5 0 0 0 .423.003l1.747-.808a.5.5 0 0 1 .42 0l1.747.807a.5.5 0 0 0 .418 0l1.747-.807a.499.499 0 0 1 .42 0l1.75.807c.127.058.272.06.399.009l1.69-.691a.498.498 0 1 1 .674.585A3.49 3.49 0 0 1 18.5 25zm5.224-10.947a.5.5 0 0 1-.448.894l-6-3a.501.501 0 0 1 0-.894l6-3a.501.501 0 0 1 .448.894L18.618 11.5l5.106 2.553z"/><metadata><rdf:RDF xmlns:rdf="http://www.w3.org/1999/02/22-rdf-syntax-ns#" xmlns:rdfs="http://www.w3.org/2000/01/rdf-schema#" xmlns:dc="http://purl.org/dc/elements/1.1/"><rdf:Description about="https://iconscout.com/legal#licenses" dc:title="angry,emot,emots,emoji,emote" dc:description="angry,emot,emots,emoji,emote" dc:publisher="Iconscout" dc:date="2017-11-29" dc:format="image/svg+xml" dc:language="en"><dc:creator><rdf:Bag><rdf:li>Those Icons</rdf:li></rdf:Bag></dc:creator></rdf:Description></rdf:RDF></metadata></svg>