<?xml version="1.0" encoding="UTF-8"?><svg xmlns="http://www.w3.org/2000/svg" xmlns:xlink="http://www.w3.org/1999/xlink" version="1.1" id="Layer_1" x="0px" y="0px" viewBox="0 0 30 30" xml:space="preserve"><g fill="#303C42"><circle cx="22" cy="9" r="1"/><circle cx="8" cy="12" r="1"/><path d="M15 0C6.729 0 0 6.729 0 15s6.729 15 15 15 15-6.729 15-15S23.271 0 15 0zM9.5 7c1.93 0 3.5 1.57 3.5 3.5S11.43 14 9.5 14 6 12.43 6 10.5 7.57 7 9.5 7zm14.486 12.615c-.462 1.947-1.787 3.633-3.567 4.785-.218-.598-1.097-2.4-3.752-2.4-.114 0-.987.014-1.667.428-.68-.414-1.553-.428-1.667-.428-2.656 0-3.534 1.8-3.753 2.401-1.781-1.151-3.107-2.838-3.567-4.786A.501.501 0 0 1 6.5 19h17a.5.5 0 0 1 .486.615zM20.5 14c-1.93 0-3.5-1.57-3.5-3.5S18.57 7 20.5 7 24 8.57 24 10.5 22.43 14 20.5 14z"/></g><metadata><rdf:RDF xmlns:rdf="http://www.w3.org/1999/02/22-rdf-syntax-ns#" xmlns:rdfs="http://www.w3.org/2000/01/rdf-schema#" xmlns:dc="http://purl.org/dc/elements/1.1/"><rdf:Description about="https://iconscout.com/legal#licenses" dc:title="crazy,emot,emots,emoji,emote" dc:description="crazy,emot,emots,emoji,emote" dc:publisher="Iconscout" dc:date="2017-11-29" dc:format="image/svg+xml" dc:language="en"><dc:creator><rdf:Bag><rdf:li>Those Icons</rdf:li></rdf:Bag></dc:creator></rdf:Description></rdf:RDF></metadata></svg>