<?xml version="1.0" encoding="UTF-8"?><svg xmlns="http://www.w3.org/2000/svg" xmlns:xlink="http://www.w3.org/1999/xlink" version="1.1" id="Layer_1" x="0px" y="0px" viewBox="0 0 30 30" xml:space="preserve"><path fill="#303C42" d="M15 0C6.729 0 0 6.729 0 15s6.729 15 15 15 15-6.729 15-15S23.271 0 15 0zm2.084 9.223a.499.499 0 0 1 .693-.139l2.723 1.815 2.723-1.815a.5.5 0 1 1 .554.832l-3 2a.502.502 0 0 1-.554 0l-3-2a.5.5 0 0 1-.139-.693zM24 13.5a1.001 1.001 0 0 1-2 0c0-.357.32-.896.589-1.284.186-.27.636-.27.822 0 .269.388.589.927.589 1.284zM6.084 9.223a.499.499 0 0 1 .693-.139L9.5 10.899l2.723-1.815a.5.5 0 1 1 .554.832l-3 2a.502.502 0 0 1-.554 0l-3-2a.5.5 0 0 1-.139-.693zM6 18c-.551 0-1-.448-1-1 0-.357.32-.896.589-1.284.186-.27.636-.27.822 0C6.68 16.104 7 16.643 7 17c0 .552-.449 1-1 1zm0-4.5c0-.357.32-.896.589-1.284.186-.27.636-.27.822 0 .269.388.589.927.589 1.284a1.001 1.001 0 0 1-2 0zm16.824 9.38a.498.498 0 0 1-.705-.057C20.528 20.95 18.133 20 15 20c-3.132 0-5.527.95-7.12 2.824a.498.498 0 0 1-.704.057.5.5 0 0 1-.057-.705C8.91 20.068 11.561 19 15 19c3.44 0 6.091 1.068 7.881 3.177a.5.5 0 0 1-.057.704zM24 18c-.551 0-1-.448-1-1 0-.357.32-.896.589-1.284.186-.27.636-.27.822 0 .269.388.589.927.589 1.284 0 .552-.449 1-1 1z"/><metadata><rdf:RDF xmlns:rdf="http://www.w3.org/1999/02/22-rdf-syntax-ns#" xmlns:rdfs="http://www.w3.org/2000/01/rdf-schema#" xmlns:dc="http://purl.org/dc/elements/1.1/"><rdf:Description about="https://iconscout.com/legal#licenses" dc:title="cry,emot,emots,emoji,emote" dc:description="cry,emot,emots,emoji,emote" dc:publisher="Iconscout" dc:date="2017-11-29" dc:format="image/svg+xml" dc:language="en"><dc:creator><rdf:Bag><rdf:li>Those Icons</rdf:li></rdf:Bag></dc:creator></rdf:Description></rdf:RDF></metadata></svg>