<?xml version="1.0" encoding="UTF-8"?><svg xmlns="http://www.w3.org/2000/svg" xmlns:xlink="http://www.w3.org/1999/xlink" version="1.1" id="Layer_1" x="0px" y="0px" viewBox="0 0 30 30" xml:space="preserve"><path fill="#303C42" d="M30 15c0-8.271-6.729-15-15-15S0 6.729 0 15c0 4.524 2.009 8.694 5.503 11.56-.31.372-.503.87-.503 1.418C5 29.093 5.759 30 6.692 30h4.616c.31 0 .598-.108.848-.283.94.181 1.895.283 2.844.283s1.903-.102 2.844-.283c.25.175.538.283.848.283h4.616C24.24 30 25 29.093 25 27.978c0-.547-.193-1.045-.503-1.417C27.99 23.694 30 19.525 30 15zM6.692 29C6.317 29 6 28.532 6 27.978c0-.434.191-.823.48-.97 1.227-.628 2.02-2.096 2.02-3.741V12.463c-.365-.03-.7-.082-1-.162-1.65-.434-2.379-1.468-2.416-1.524a.5.5 0 0 1 .83-.557c.044.063.919 1.28 3.086 1.28 2.177 0 3.05-1.229 3.086-1.28a.502.502 0 0 1 .693-.132c.228.154.29.46.137.69-.037.055-.766 1.089-2.416 1.524-.3.079-.636.131-1 .16v10.805c0 1.645.793 3.113 2.022 3.742.287.146.478.535.478.969 0 .554-.317 1.022-.692 1.022H6.692zM12 21a.5.5 0 1 1 0-1h6a.5.5 0 1 1 0 1h-6zm12.916-10.223c-.037.056-.766 1.09-2.416 1.525-.3.079-.636.131-1 .16v10.805c0 1.645.793 3.113 2.022 3.742.287.146.478.535.478.969 0 .554-.317 1.022-.692 1.022h-4.616c-.375 0-.692-.468-.692-1.022 0-.434.191-.823.48-.97 1.227-.628 2.02-2.096 2.02-3.741V12.463c-.365-.03-.7-.082-1-.162-1.65-.434-2.379-1.468-2.416-1.524a.5.5 0 0 1 .83-.557c.044.063.919 1.28 3.086 1.28 2.177 0 3.05-1.229 3.086-1.28a.503.503 0 0 1 .693-.132c.228.154.29.46.137.69z"/><metadata><rdf:RDF xmlns:rdf="http://www.w3.org/1999/02/22-rdf-syntax-ns#" xmlns:rdfs="http://www.w3.org/2000/01/rdf-schema#" xmlns:dc="http://purl.org/dc/elements/1.1/"><rdf:Description about="https://iconscout.com/legal#licenses" dc:title="cry,emot,emots,emoji,emote" dc:description="cry,emot,emots,emoji,emote" dc:publisher="Iconscout" dc:date="2017-11-29" dc:format="image/svg+xml" dc:language="en"><dc:creator><rdf:Bag><rdf:li>Those Icons</rdf:li></rdf:Bag></dc:creator></rdf:Description></rdf:RDF></metadata></svg>