<?xml version="1.0" encoding="UTF-8"?><svg xmlns="http://www.w3.org/2000/svg" xmlns:xlink="http://www.w3.org/1999/xlink" version="1.1" id="Layer_1" x="0px" y="0px" viewBox="0 0 30 30" xml:space="preserve"><path fill="#303C42" d="M26.424 7.948C27.97 5.238 28 .77 28 .5a.5.5 0 1 0-1 0c0 .926-1.8 2.23-4.813 3.508-4.363-2.615-10.011-2.615-14.374 0C4.8 2.729 3 1.426 3 .5a.5.5 0 0 0-1-.023V.5c0 .27.029 4.737 1.576 7.448A13.855 13.855 0 0 0 1 16c0 7.72 6.28 14 14 14s14-6.28 14-14c0-2.902-.895-5.675-2.576-8.052zm.466-5.47C26.605 5.246 25.7 9 23.367 9c-.083 0-.164-.002-.244-.006-1.327-.055-1.956-.964-2.091-1.725-.13-.728.133-1.748 1.295-2.23 2.12-.88 3.635-1.728 4.563-2.56zM18.5 12c1.603 0 3.777-.948 3.799-.958a.5.5 0 1 1 .402.916c-.054.024-.819.352-1.793.634A.986.986 0 0 1 21 13a1.001 1.001 0 0 1-2 0c0-.011.006-.02.006-.031-.17.015-.341.031-.506.031a.5.5 0 1 1 0-1zm-6.5.5a.5.5 0 0 1-.5.5c-.165 0-.336-.016-.506-.031 0 .01.006.02.006.031a1.001 1.001 0 0 1-2 0c0-.146.035-.283.092-.408a16.502 16.502 0 0 1-1.793-.634.5.5 0 0 1 .402-.916c.022.01 2.2.958 3.799.958a.5.5 0 0 1 .5.5zM7.673 5.038c1.162.483 1.424 1.503 1.295 2.23-.135.762-.764 1.671-2.092 1.727-.08.003-.16.005-.243.005C4.304 9 3.396 5.246 3.11 2.479c.928.833 2.443 1.681 4.562 2.56zm16.313 14.577c-.462 1.947-1.787 3.633-3.567 4.785-.218-.598-1.097-2.4-3.752-2.4-.114 0-.987.014-1.667.428-.68-.414-1.553-.428-1.667-.428-2.656 0-3.534 1.8-3.753 2.401-1.781-1.151-3.107-2.838-3.567-4.786A.501.501 0 0 1 6.5 19h1.69l1.363 2.724a.501.501 0 0 0 .894 0L11.81 19h6.382l1.362 2.724a.501.501 0 0 0 .894 0L21.81 19H23.5a.5.5 0 0 1 .486.615z"/><metadata><rdf:RDF xmlns:rdf="http://www.w3.org/1999/02/22-rdf-syntax-ns#" xmlns:rdfs="http://www.w3.org/2000/01/rdf-schema#" xmlns:dc="http://purl.org/dc/elements/1.1/"><rdf:Description about="https://iconscout.com/legal#licenses" dc:title="devil,emot,emots,emoji,emote" dc:description="devil,emot,emots,emoji,emote" dc:publisher="Iconscout" dc:date="2017-11-29" dc:format="image/svg+xml" dc:language="en"><dc:creator><rdf:Bag><rdf:li>Those Icons</rdf:li></rdf:Bag></dc:creator></rdf:Description></rdf:RDF></metadata></svg>