<?xml version="1.0" encoding="UTF-8"?><svg xmlns="http://www.w3.org/2000/svg" xmlns:xlink="http://www.w3.org/1999/xlink" version="1.1" id="Layer_1" x="0px" y="0px" viewBox="0 0 30 30" xml:space="preserve"><path fill="#303C42" d="M15 0C6.729 0 0 6.729 0 15s6.729 15 15 15 15-6.729 15-15S23.271 0 15 0zM6.5 11a.5.5 0 0 1-.158-.975l6-2a.5.5 0 0 1 .316.95l-6 2A.498.498 0 0 1 6.5 11zm8 10.384v.766a.5.5 0 1 0 1 0v-.766c.478-.23.977-.356 1.488-.375.642.024 1.189.412 1.803.998.13.125.19.308.15.467C18.572 23.92 16.556 25 15 25c-1.558 0-3.56-1.036-3.94-2.523a.493.493 0 0 1 .15-.47c.622-.585 1.171-.974 1.803-.998.51.019 1.009.145 1.487.375zm8.394 1.424A.501.501 0 0 1 22.5 23h-2.042a3.06 3.06 0 0 0 .042-.5c0-1.38-2.044-2.5-3.378-2.5-.036 0-.071.005-.107.006-.03 0-.057-.006-.086-.006-.667 0-1.315.153-1.929.455A4.338 4.338 0 0 0 13.071 20c-.03 0-.056.005-.085.006-.036 0-.072-.006-.108-.006-.939 0-2.13.533-2.77 1.241-.375.414-.55.866-.508 1.259 0 .171.018.337.045.5H7.5a.502.502 0 0 1-.485-.622C7.785 19.312 11.218 17 15 17c3.786 0 7.218 2.313 7.985 5.379a.498.498 0 0 1-.091.429zm1.08-12.15a.5.5 0 0 1-.632.317l-6-2a.5.5 0 0 1 .316-.95l6 2a.5.5 0 0 1 .316.633z"/><metadata><rdf:RDF xmlns:rdf="http://www.w3.org/1999/02/22-rdf-syntax-ns#" xmlns:rdfs="http://www.w3.org/2000/01/rdf-schema#" xmlns:dc="http://purl.org/dc/elements/1.1/"><rdf:Description about="https://iconscout.com/legal#licenses" dc:title="disgusted,emot,emots,emoji,emote" dc:description="disgusted,emot,emots,emoji,emote" dc:publisher="Iconscout" dc:date="2017-11-29" dc:format="image/svg+xml" dc:language="en"><dc:creator><rdf:Bag><rdf:li>Those Icons</rdf:li></rdf:Bag></dc:creator></rdf:Description></rdf:RDF></metadata></svg>