<?xml version="1.0" encoding="UTF-8"?><svg xmlns="http://www.w3.org/2000/svg" xmlns:xlink="http://www.w3.org/1999/xlink" version="1.1" id="Layer_1" x="0px" y="0px" viewBox="0 0 30 30" xml:space="preserve"><path fill="#303C42" d="M15 0C6.729 0 0 6.729 0 15s6.729 15 15 15 15-6.729 15-15S23.271 0 15 0zm2.342 11.026l6-2a.5.5 0 1 1 .316.948l-6 2a.497.497 0 0 1-.633-.316.5.5 0 0 1 .317-.632zM6.025 9.342a.502.502 0 0 1 .633-.316l6 2a.5.5 0 1 1-.316.948l-6-2a.5.5 0 0 1-.317-.632zm14.348 14.946C20.097 23.61 19.181 22 16.667 22c-.114 0-.987.014-1.667.427-.68-.413-1.553-.427-1.667-.427-2.51 0-3.429 1.606-3.706 2.288C7.234 22.478 6 19.478 6 16.5a.5.5 0 0 1 .5-.5h17a.5.5 0 0 1 .5.5c0 2.979-1.234 5.978-3.627 7.788z"/><metadata><rdf:RDF xmlns:rdf="http://www.w3.org/1999/02/22-rdf-syntax-ns#" xmlns:rdfs="http://www.w3.org/2000/01/rdf-schema#" xmlns:dc="http://purl.org/dc/elements/1.1/"><rdf:Description about="https://iconscout.com/legal#licenses" dc:title="evil,laugh,emot,emots,emoji,emote" dc:description="evil,laugh,emot,emots,emoji,emote" dc:publisher="Iconscout" dc:date="2017-11-29" dc:format="image/svg+xml" dc:language="en"><dc:creator><rdf:Bag><rdf:li>Those Icons</rdf:li></rdf:Bag></dc:creator></rdf:Description></rdf:RDF></metadata></svg>