<?xml version="1.0" encoding="UTF-8"?><svg xmlns="http://www.w3.org/2000/svg" xmlns:xlink="http://www.w3.org/1999/xlink" version="1.1" id="Layer_1" x="0px" y="0px" viewBox="0 0 30 30" xml:space="preserve"><path fill="#303C42" d="M15 0C6.729 0 0 6.729 0 15s6.729 15 15 15 15-6.729 15-15S23.271 0 15 0zM5 12.5C5 10.019 7.019 8 9.5 8a.5.5 0 1 1 0 1C7.57 9 6 10.57 6 12.5S7.57 16 9.5 16c1.379 0 2.5-1.122 2.5-2.5S10.879 11 9.5 11c-.827 0-1.5.673-1.5 1.5S8.673 14 9.5 14a.5.5 0 0 0 0-1 .5.5 0 1 1 0-1c.827 0 1.5.673 1.5 1.5S10.327 15 9.5 15C8.121 15 7 13.878 7 12.5S8.121 10 9.5 10c1.93 0 3.5 1.57 3.5 3.5S11.43 17 9.5 17A4.505 4.505 0 0 1 5 12.5zM18.5 23h-7a.5.5 0 1 1 0-1h7a.5.5 0 1 1 0 1zm3-6c-2.481 0-4.5-2.019-4.5-4.5S19.019 8 21.5 8a.5.5 0 1 1 0 1c-1.93 0-3.5 1.57-3.5 3.5s1.57 3.5 3.5 3.5c1.379 0 2.5-1.122 2.5-2.5S22.879 11 21.5 11c-.827 0-1.5.673-1.5 1.5s.673 1.5 1.5 1.5a.5.5 0 0 0 0-1 .5.5 0 1 1 0-1c.827 0 1.5.673 1.5 1.5s-.673 1.5-1.5 1.5c-1.379 0-2.5-1.122-2.5-2.5s1.121-2.5 2.5-2.5c1.93 0 3.5 1.57 3.5 3.5S23.43 17 21.5 17z"/><metadata><rdf:RDF xmlns:rdf="http://www.w3.org/1999/02/22-rdf-syntax-ns#" xmlns:rdfs="http://www.w3.org/2000/01/rdf-schema#" xmlns:dc="http://purl.org/dc/elements/1.1/"><rdf:Description about="https://iconscout.com/legal#licenses" dc:title="hypnotized,emot,emots,emoji,emote" dc:description="hypnotized,emot,emots,emoji,emote" dc:publisher="Iconscout" dc:date="2017-11-29" dc:format="image/svg+xml" dc:language="en"><dc:creator><rdf:Bag><rdf:li>Those Icons</rdf:li></rdf:Bag></dc:creator></rdf:Description></rdf:RDF></metadata></svg>