<?xml version="1.0" encoding="UTF-8"?><svg xmlns="http://www.w3.org/2000/svg" xmlns:xlink="http://www.w3.org/1999/xlink" version="1.1" id="Layer_1" x="0px" y="0px" viewBox="0 0 30 30" xml:space="preserve"><path fill="#303C42" d="M15 0C6.716 0 0 6.716 0 15c0 8.284 6.716 15 15 15s15-6.716 15-15c0-8.284-6.716-15-15-15zm-2.854 6.004a3.435 3.435 0 0 1 4.85 0 3.433 3.433 0 0 1 0 4.85.498.498 0 0 1-.707 0 .5.5 0 0 1 0-.708 2.434 2.434 0 0 0 0-3.435 2.432 2.432 0 0 0-3.435 0 .5.5 0 1 1-.708-.707zm10.262 17.144a10.953 10.953 0 0 1-7.393 2.865 10.992 10.992 0 0 1-7.793-3.235c-4.166-4.167-4.328-10.837-.37-15.186.092-.1.221-.16.358-.163.132 0 .269.05.365.146l14.85 14.85a.5.5 0 0 1-.017.723zm1.588-5.294a.498.498 0 0 1-.707 0 .5.5 0 0 1 0-.708 2.434 2.434 0 0 0 0-3.435 2.432 2.432 0 0 0-3.435 0 .5.5 0 1 1-.708-.707 3.435 3.435 0 0 1 4.85 0 3.433 3.433 0 0 1 0 4.85z"/><metadata><rdf:RDF xmlns:rdf="http://www.w3.org/1999/02/22-rdf-syntax-ns#" xmlns:rdfs="http://www.w3.org/2000/01/rdf-schema#" xmlns:dc="http://purl.org/dc/elements/1.1/"><rdf:Description about="https://iconscout.com/legal#licenses" dc:title="lol,emot,emots,emoji,emote" dc:description="lol,emot,emots,emoji,emote" dc:publisher="Iconscout" dc:date="2017-11-29" dc:format="image/svg+xml" dc:language="en"><dc:creator><rdf:Bag><rdf:li>Those Icons</rdf:li></rdf:Bag></dc:creator></rdf:Description></rdf:RDF></metadata></svg>