<?xml version="1.0" encoding="UTF-8"?><svg xmlns="http://www.w3.org/2000/svg" xmlns:xlink="http://www.w3.org/1999/xlink" version="1.1" id="Layer_1" x="0px" y="0px" viewBox="0 0 30 30" xml:space="preserve"><g fill="#303C42"><circle cx="21" cy="12" r="1"/><circle cx="9" cy="12" r="1"/><path d="M1.418 9.734L3 10.638V9.5C3 8.673 3.673 8 4.5 8h8c.827 0 1.5.673 1.5 1.5v.784c.274-.162.602-.284 1-.284s.726.122 1 .284V9.5c0-.827.673-1.5 1.5-1.5h8c.827 0 1.5.673 1.5 1.5v1.223l1.63-.74a.5.5 0 0 0 .256-.645A14.946 14.946 0 0 0 15 0 14.99 14.99 0 0 0 1.206 9.104a.5.5 0 0 0 .212.63z"/><path d="M29.526 11.32a.499.499 0 0 0-.691-.332L27 11.822V13.5c0 1.93-1.57 3.5-3.5 3.5h-6c-.827 0-1.5-.673-1.5-1.5v-3.863c-.123-.19-.468-.637-1-.637-.53 0-.875.445-1 .637V15.5c0 .827-.673 1.5-1.5 1.5h-6C4.57 17 3 15.43 3 13.5v-1.71l-1.74-.994a.498.498 0 0 0-.73.305A15.014 15.014 0 0 0 0 15c0 8.271 6.729 15 15 15s15-6.729 15-15c0-1.199-.16-2.437-.474-3.68zM18.947 22.724c-.732 1.465-2.09 2.273-3.822 2.274h-.006c-1.916 0-3.322-.786-4.066-2.274a.5.5 0 0 1 .894-.448c.58 1.16 1.616 1.722 3.171 1.722h.007c1.709-.001 2.535-.937 2.928-1.722a.5.5 0 0 1 .895.447z"/></g><metadata><rdf:RDF xmlns:rdf="http://www.w3.org/1999/02/22-rdf-syntax-ns#" xmlns:rdfs="http://www.w3.org/2000/01/rdf-schema#" xmlns:dc="http://purl.org/dc/elements/1.1/"><rdf:Description about="https://iconscout.com/legal#licenses" dc:title="nerd,emot,emots,emoji,emote" dc:description="nerd,emot,emots,emoji,emote" dc:publisher="Iconscout" dc:date="2017-11-29" dc:format="image/svg+xml" dc:language="en"><dc:creator><rdf:Bag><rdf:li>Those Icons</rdf:li></rdf:Bag></dc:creator></rdf:Description></rdf:RDF></metadata></svg>