<?xml version="1.0" encoding="UTF-8"?><svg xmlns="http://www.w3.org/2000/svg" xmlns:xlink="http://www.w3.org/1999/xlink" version="1.1" id="Layer_1" x="0px" y="0px" viewBox="0 0 30 30" xml:space="preserve"><g fill="#303C42"><path d="M15 0C6.729 0 0 6.729 0 15s6.729 15 15 15 15-6.729 15-15S23.271 0 15 0zM5.947 8.724a.5.5 0 0 1-.894-.448c1.353-2.706 5.217-3.25 5.381-3.272a.498.498 0 0 1 .561.43.499.499 0 0 1-.429.561c-.034.005-3.504.5-4.619 2.729zM7 12c0-2.206 1.57-4 3.5-4S14 9.794 14 12s-1.57 4-3.5 4S7 14.206 7 12zm11.5 10h-7a.5.5 0 1 1 0-1h7a.5.5 0 1 1 0 1zm2-6c-1.93 0-3.5-1.794-3.5-4s1.57-4 3.5-4S24 9.794 24 12s-1.57 4-3.5 4zm4.224-7.053a.5.5 0 0 1-.67-.224C22.937 6.495 19.467 6 19.433 5.996a.499.499 0 0 1-.43-.561.496.496 0 0 1 .562-.43c.164.022 4.028.566 5.381 3.272a.5.5 0 0 1-.223.671z"/><path d="M19 9a1.001 1.001 0 0 0 0 2 1.001 1.001 0 0 0 0-2z"/><path d="M9 9a1.001 1.001 0 0 0 0 2 1.001 1.001 0 0 0 0-2z"/></g><metadata><rdf:RDF xmlns:rdf="http://www.w3.org/1999/02/22-rdf-syntax-ns#" xmlns:rdfs="http://www.w3.org/2000/01/rdf-schema#" xmlns:dc="http://purl.org/dc/elements/1.1/"><rdf:Description about="https://iconscout.com/legal#licenses" dc:title="rolling,eyes,emot,emots,emoji,emote" dc:description="rolling,eyes,emot,emots,emoji,emote" dc:publisher="Iconscout" dc:date="2017-11-29" dc:format="image/svg+xml" dc:language="en"><dc:creator><rdf:Bag><rdf:li>Those Icons</rdf:li></rdf:Bag></dc:creator></rdf:Description></rdf:RDF></metadata></svg>