<?xml version="1.0" encoding="UTF-8"?><svg xmlns="http://www.w3.org/2000/svg" xmlns:xlink="http://www.w3.org/1999/xlink" version="1.1" id="Layer_1" x="0px" y="0px" viewBox="0 0 30 30" xml:space="preserve"><path fill="#303C42" d="M15 0C6.729 0 0 6.729 0 15s6.729 15 15 15 15-6.729 15-15S23.271 0 15 0zm5 9c.58 0 1 .63 1 1.5s-.42 1.5-1 1.5-1-.63-1-1.5.42-1.5 1-1.5zM10 9c.58 0 1 .63 1 1.5s-.42 1.5-1 1.5-1-.63-1-1.5S9.42 9 10 9zm10.463 15.676l-.004-.096a.5.5 0 0 0-.028-.151C20.23 23.859 19.358 22 16.667 22c-.114 0-.987.014-1.667.427-.68-.413-1.553-.427-1.667-.427-2.697 0-3.564 1.863-3.766 2.434a.513.513 0 0 0-.028.156l-.002.085C7.972 23.768 7 22.47 7 21c0-2.804 3.514-5 8-5s8 2.196 8 5c0 1.47-.972 2.769-2.537 3.676z"/><metadata><rdf:RDF xmlns:rdf="http://www.w3.org/1999/02/22-rdf-syntax-ns#" xmlns:rdfs="http://www.w3.org/2000/01/rdf-schema#" xmlns:dc="http://purl.org/dc/elements/1.1/"><rdf:Description about="https://iconscout.com/legal#licenses" dc:title="shocked,emot,emots,emoji,emote" dc:description="shocked,emot,emots,emoji,emote" dc:publisher="Iconscout" dc:date="2017-11-29" dc:format="image/svg+xml" dc:language="en"><dc:creator><rdf:Bag><rdf:li>Those Icons</rdf:li></rdf:Bag></dc:creator></rdf:Description></rdf:RDF></metadata></svg>