<?xml version="1.0" encoding="UTF-8"?><svg xmlns="http://www.w3.org/2000/svg" xmlns:xlink="http://www.w3.org/1999/xlink" version="1.1" id="Layer_1" x="0px" y="0px" viewBox="0 0 30 30" xml:space="preserve"><path fill="#303C42" d="M15 0C6.729 0 0 6.729 0 15s6.729 15 15 15 15-6.729 15-15S23.271 0 15 0zm5 10c.551 0 1 .449 1 1s-.449 1-1 1-1-.449-1-1 .449-1 1-1zm-10 0c.551 0 1 .449 1 1s-.449 1-1 1-1-.449-1-1 .449-1 1-1zm12.5 13a.5.5 0 0 1 0 1 4.515 4.515 0 0 1-4.41-3.6.5.5 0 0 0-.489-.4H12.4a.5.5 0 0 0-.49.4A4.515 4.515 0 0 1 7.5 24a.5.5 0 0 1 0-1c1.93 0 3.5-1.57 3.5-3.5S9.43 16 7.5 16a.5.5 0 0 1 0-1 4.515 4.515 0 0 1 4.41 3.6.5.5 0 0 0 .489.4H17.6a.5.5 0 0 0 .49-.4A4.515 4.515 0 0 1 22.5 15a.5.5 0 0 1 0 1c-1.93 0-3.5 1.57-3.5 3.5s1.57 3.5 3.5 3.5z"/><metadata><rdf:RDF xmlns:rdf="http://www.w3.org/1999/02/22-rdf-syntax-ns#" xmlns:rdfs="http://www.w3.org/2000/01/rdf-schema#" xmlns:dc="http://purl.org/dc/elements/1.1/"><rdf:Description about="https://iconscout.com/legal#licenses" dc:title="sick,emot,emots,emoji,emote" dc:description="sick,emot,emots,emoji,emote" dc:publisher="Iconscout" dc:date="2017-11-29" dc:format="image/svg+xml" dc:language="en"><dc:creator><rdf:Bag><rdf:li>Those Icons</rdf:li></rdf:Bag></dc:creator></rdf:Description></rdf:RDF></metadata></svg>