<?xml version="1.0" encoding="UTF-8"?><svg xmlns="http://www.w3.org/2000/svg" xmlns:xlink="http://www.w3.org/1999/xlink" version="1.1" id="Layer_1" x="0px" y="0px" viewBox="0 0 30 30" xml:space="preserve"><path fill="#303C42" d="M15 0C6.729 0 0 6.729 0 15s6.729 15 15 15 15-6.729 15-15S23.271 0 15 0zm-5 10a1 1 0 1 1-.001 2.001A1 1 0 0 1 10 10zm10.832 13.126a.499.499 0 0 1 .022.728l-2 2a.498.498 0 0 1-.686.02L15 23.058l-3.168 2.816a.5.5 0 0 1-.686-.02l-2-2a.5.5 0 0 1 .022-.728l2.954-2.626-2.954-2.626a.499.499 0 0 1-.022-.728l2-2a.5.5 0 0 1 .686-.02L15 17.942l3.168-2.816a.502.502 0 0 1 .686.02l2 2a.5.5 0 0 1-.022.728L17.878 20.5l2.954 2.626zM20 13c-1.103 0-2-.897-2-2s.897-2 2-2 2 .897 2 2-.897 2-2 2z"/><metadata><rdf:RDF xmlns:rdf="http://www.w3.org/1999/02/22-rdf-syntax-ns#" xmlns:rdfs="http://www.w3.org/2000/01/rdf-schema#" xmlns:dc="http://purl.org/dc/elements/1.1/"><rdf:Description about="https://iconscout.com/legal#licenses" dc:title="silent,emot,emots,emoji,emote" dc:description="silent,emot,emots,emoji,emote" dc:publisher="Iconscout" dc:date="2017-11-29" dc:format="image/svg+xml" dc:language="en"><dc:creator><rdf:Bag><rdf:li>Those Icons</rdf:li></rdf:Bag></dc:creator></rdf:Description></rdf:RDF></metadata></svg>