<?xml version="1.0" encoding="UTF-8"?><svg xmlns="http://www.w3.org/2000/svg" xmlns:xlink="http://www.w3.org/1999/xlink" version="1.1" id="Layer_1" x="0px" y="0px" viewBox="0 0 30 30" xml:space="preserve"><path fill="#303C42" d="M15 0C6.729 0 0 6.729 0 15s6.729 15 15 15 15-6.729 15-15S23.271 0 15 0zm5 10c.551 0 1 .449 1 1s-.449 1-1 1-1-.449-1-1 .449-1 1-1zm-10 0c.551 0 1 .449 1 1s-.449 1-1 1-1-.449-1-1 .449-1 1-1zm14.122 13.856a3.057 3.057 0 0 1-2.335 1.066 3.057 3.057 0 0 1-2.058-.793l-.317-.28A9.006 9.006 0 0 1 15 25a8.96 8.96 0 0 1-8.592-6.313.5.5 0 1 1 .954-.298A7.965 7.965 0 0 0 15 24a7.96 7.96 0 0 0 7.646-5.638.494.494 0 0 1 .625-.33.5.5 0 0 1 .33.625c-.055.18-.12.353-.186.527l.308.254c.654.523 1.06 1.278 1.138 2.12s-.185 1.659-.739 2.298z"/><metadata><rdf:RDF xmlns:rdf="http://www.w3.org/1999/02/22-rdf-syntax-ns#" xmlns:rdfs="http://www.w3.org/2000/01/rdf-schema#" xmlns:dc="http://purl.org/dc/elements/1.1/"><rdf:Description about="https://iconscout.com/legal#licenses" dc:title="stretch,tongue,emot,emots,emoji,emote" dc:description="stretch,tongue,emot,emots,emoji,emote" dc:publisher="Iconscout" dc:date="2017-11-29" dc:format="image/svg+xml" dc:language="en"><dc:creator><rdf:Bag><rdf:li>Those Icons</rdf:li></rdf:Bag></dc:creator></rdf:Description></rdf:RDF></metadata></svg>