<?xml version="1.0" encoding="UTF-8"?><svg xmlns="http://www.w3.org/2000/svg" xmlns:xlink="http://www.w3.org/1999/xlink" version="1.1" id="Layer_1" x="0px" y="0px" viewBox="0 0 30 30" xml:space="preserve"><path fill="#303C42" d="M15 0C6.729 0 0 6.729 0 15s6.729 15 15 15 15-6.729 15-15S23.271 0 15 0zm3.5 9c.074 0 1.816.015 2.447 1.276a.5.5 0 0 1-.894.448C19.7 10.02 18.512 10 18.5 10a.5.5 0 1 1 0-1zm.5 2a1 1 0 1 1-.001 2.001A1 1 0 0 1 19 11zm-10.958-.7C8.083 10.206 9.087 8 12.5 8a.5.5 0 1 1 0 1c-2.73 0-3.512 1.635-3.544 1.704a.504.504 0 0 1-.66.25.497.497 0 0 1-.254-.654zM12 12a1 1 0 1 1-2.001-.001A1 1 0 0 1 12 12zm9.5 9h-13a.5.5 0 1 1 0-1h13a.5.5 0 1 1 0 1zm2.5-6a.5.5 0 1 1 0-1 .5.5 0 0 1 0 1zm.974-4.678a.852.852 0 0 0-.474.767V12.5a.5.5 0 1 1-1 0v-1.411c0-.71.394-1.346 1.026-1.661A.852.852 0 0 0 25 8.66V8a1 1 0 0 0-2 0 .5.5 0 1 1-1 0c0-1.103.897-2 2-2s2 .897 2 2v.661c0 .71-.394 1.346-1.026 1.661z"/><metadata><rdf:RDF xmlns:rdf="http://www.w3.org/1999/02/22-rdf-syntax-ns#" xmlns:rdfs="http://www.w3.org/2000/01/rdf-schema#" xmlns:dc="http://purl.org/dc/elements/1.1/"><rdf:Description about="https://iconscout.com/legal#licenses" dc:title="thinking,emot,emots,emoji,emote" dc:description="thinking,emot,emots,emoji,emote" dc:publisher="Iconscout" dc:date="2017-11-29" dc:format="image/svg+xml" dc:language="en"><dc:creator><rdf:Bag><rdf:li>Those Icons</rdf:li></rdf:Bag></dc:creator></rdf:Description></rdf:RDF></metadata></svg>