<?xml version="1.0" encoding="UTF-8"?><svg xmlns="http://www.w3.org/2000/svg" xmlns:xlink="http://www.w3.org/1999/xlink" version="1.1" id="Layer_1" x="0px" y="0px" viewBox="0 0 30 30" xml:space="preserve"><path fill="#303C42" d="M15 0C6.729 0 0 6.729 0 15s6.729 15 15 15 15-6.729 15-15S23.271 0 15 0zM9.5 10a1 1 0 1 1-.002 1.998A1 1 0 0 1 9.5 10zm12.812 9.89c-.075.06-1.115.88-2.812 1.584V23.5a.5.5 0 0 1-.5.5h-3a.5.5 0 0 1-.5-.5v-1.045c-.326.026-.658.045-1 .045s-.674-.019-1-.045V24.5a.5.5 0 0 1-.5.5h-3a.5.5 0 0 1-.5-.5v-3.026c-1.697-.705-2.737-1.523-2.813-1.583a.5.5 0 0 1 .625-.782c.03.024 3.051 2.391 7.188 2.391 4.151 0 7.158-2.366 7.187-2.39a.5.5 0 0 1 .625.781zM20.5 14c-1.378 0-2.5-1.121-2.5-2.5S19.122 9 20.5 9s2.5 1.121 2.5 2.5-1.122 2.5-2.5 2.5z"/><metadata><rdf:RDF xmlns:rdf="http://www.w3.org/1999/02/22-rdf-syntax-ns#" xmlns:rdfs="http://www.w3.org/2000/01/rdf-schema#" xmlns:dc="http://purl.org/dc/elements/1.1/"><rdf:Description about="https://iconscout.com/legal#licenses" dc:title="ugly,emot,emots,emoji,emote" dc:description="ugly,emot,emots,emoji,emote" dc:publisher="Iconscout" dc:date="2017-11-29" dc:format="image/svg+xml" dc:language="en"><dc:creator><rdf:Bag><rdf:li>Those Icons</rdf:li></rdf:Bag></dc:creator></rdf:Description></rdf:RDF></metadata></svg>