<?xml version="1.0" encoding="UTF-8"?><svg xmlns="http://www.w3.org/2000/svg" xmlns:xlink="http://www.w3.org/1999/xlink" version="1.1" id="Layer_1" x="0px" y="0px" viewBox="0 0 30 30" xml:space="preserve"><path fill="#303C42" d="M15 0C6.729 0 0 6.729 0 15s6.729 15 15 15 15-6.729 15-15S23.271 0 15 0zm-5 12a1 1 0 1 1 .001-2.001A1 1 0 0 1 10 12zm9 11.7c0 .717-.673 1.3-1.5 1.3-.864 0-2.5-.522-2.5-2.5s1.636-2.5 2.5-2.5c.827 0 1.5.583 1.5 1.3v2.4zM19 11a1 1 0 1 1 2.001.001A1 1 0 0 1 19 11zm3 10c0 .07-.014.135-.04.195A.987.987 0 0 1 21 22a1 1 0 0 1 0-2v-3.375a.5.5 0 1 1 1 0V21zm4.146-7.146L26 13.707V17c0 .07-.014.135-.04.195A.987.987 0 0 1 25 18a1 1 0 0 1 0-2v-3.5a.5.5 0 0 1 .854-.354l1 1a.5.5 0 1 1-.708.708z"/><metadata><rdf:RDF xmlns:rdf="http://www.w3.org/1999/02/22-rdf-syntax-ns#" xmlns:rdfs="http://www.w3.org/2000/01/rdf-schema#" xmlns:dc="http://purl.org/dc/elements/1.1/"><rdf:Description about="https://iconscout.com/legal#licenses" dc:title="wistling,emot,emots,emoji,emote" dc:description="wistling,emot,emots,emoji,emote" dc:publisher="Iconscout" dc:date="2017-11-29" dc:format="image/svg+xml" dc:language="en"><dc:creator><rdf:Bag><rdf:li>Those Icons</rdf:li></rdf:Bag></dc:creator></rdf:Description></rdf:RDF></metadata></svg>